<svg width="272" height="632" viewBox="0 0 272 632" fill="none" xmlns="http://www.w3.org/2000/svg">
<g clip-path="url(#clip0_646_3916)">
<g clip-path="url(#clip1_646_3916)">
<path d="M119.292 287.954L138.143 103.945L147.239 0.125L-1.99681 0.124993L-1.99684 631.629L125.757 631.629L112.587 579.415L153.109 454.013L119.292 287.954Z" fill="#081E3F"/>
</g>
<path d="M137.805 101.785L190.309 19.2701L149.933 -35.6641L137.805 101.797" stroke="#A1FEB5" stroke-width="1.38488"/>
<path d="M13.748 38.9643L149.434 -36.5104L28.9109 -80.3242L13.748 38.9769" stroke="#A1FEB5" stroke-width="1.38488"/>
<path d="M152.844 453.894L196.129 318.598L119.697 287.555L152.844 453.906" stroke="#A1FEB5" stroke-width="1.38488"/>
<path d="M41.3661 367.106L119.133 286.72L55.4585 178.816L41.3661 367.119" stroke="#A1FEB5" stroke-width="1.38488"/>
<path d="M139.256 683.53L281.906 703.642L111.965 582.074L139.256 683.542" stroke="#A1FEB5" stroke-width="1.38488"/>
<path d="M12.9531 660.105L111.449 581.256L50.2433 503.086L12.9531 660.118" stroke="#A1FEB5" stroke-width="1.38488"/>
<path d="M119.693 285.905L232.609 136.845L137.753 103.434L119.693 285.918" stroke="#A1FEB5" stroke-width="1.38488"/>
<path d="M55.4819 177.22L137.203 102.614L13.7209 40.5898L55.4819 177.233" stroke="#A1FEB5" stroke-width="1.38488"/>
<path d="M112.038 580.471L232.586 587.259L152.88 455.578L112.038 580.483" stroke="#A1FEB5" stroke-width="1.38488"/>
<path d="M50.2171 501.472L152.277 454.737L41.3637 368.746L50.2171 501.485" stroke="#A1FEB5" stroke-width="1.38488"/>
<path d="M134.487 102.333C134.487 104.016 135.851 105.381 137.534 105.381C139.218 105.381 140.582 104.016 140.582 102.333C140.582 100.65 139.218 99.2852 137.534 99.2852C135.851 99.2852 134.487 100.65 134.487 102.333Z" stroke="#A1FEB5" stroke-width="5.53951"/>
<path d="M10.4671 39.5039C10.4671 41.1788 11.8272 42.539 13.5148 42.539C15.2024 42.539 16.5625 41.1788 16.5625 39.5039C16.5625 37.8289 15.2024 36.4687 13.5148 36.4687C11.8272 36.4687 10.4671 37.8289 10.4671 39.5039Z" stroke="#A1FEB5" stroke-width="5.53951"/>
<path d="M187.076 18.9882C187.076 20.6632 188.437 22.0233 190.124 22.0233C191.812 22.0233 193.172 20.6632 193.172 18.9882C193.172 17.3133 191.812 15.9531 190.124 15.9531C188.437 15.9531 187.076 17.3133 187.076 18.9882Z" stroke="#A1FEB5" stroke-width="5.53951"/>
<path d="M154.96 454.458C154.96 455.763 153.91 456.813 152.604 456.813C151.301 456.813 150.249 455.752 150.249 454.458C150.249 453.153 151.299 452.103 152.604 452.103C153.91 452.103 154.96 453.153 154.96 454.458Z" fill="#A1FEB5" stroke="#A1FEB5" stroke-width="1.38488"/>
<path d="M149.557 454.458C149.557 456.133 150.917 457.506 152.605 457.506C154.292 457.506 155.652 456.145 155.652 454.458C155.652 452.77 154.292 451.41 152.605 451.41C150.917 451.41 149.557 452.77 149.557 454.458Z" stroke="#A1FEB5" stroke-width="5.53951"/>
<path d="M43.4756 367.661C43.4755 368.966 42.4252 370.017 41.1201 370.017C39.817 370.017 38.7647 368.955 38.7646 367.661C38.7646 366.356 39.815 365.306 41.1201 365.306C42.4253 365.306 43.4756 366.356 43.4756 367.661Z" fill="#A1FEB5" stroke="#A1FEB5" stroke-width="1.38488"/>
<path d="M38.0726 367.661C38.0726 369.344 39.4371 370.709 41.1203 370.709C42.8035 370.709 44.168 369.344 44.168 367.661C44.168 365.978 42.8035 364.613 41.1203 364.613C39.4371 364.613 38.0726 365.978 38.0726 367.661Z" stroke="#A1FEB5" stroke-width="5.53951"/>
<path d="M192.916 318.344C192.916 320.019 194.276 321.379 195.964 321.379C197.652 321.379 199.012 320.019 199.012 318.344C199.012 316.669 197.652 315.309 195.964 315.309C194.276 315.309 192.916 316.669 192.916 318.344Z" stroke="#A1FEB5" stroke-width="5.53951"/>
<path d="M116.42 286.457C116.42 288.132 117.78 289.492 119.468 289.492C121.155 289.492 122.516 288.132 122.516 286.457C122.516 284.782 121.155 283.422 119.468 283.422C117.78 283.422 116.42 284.782 116.42 286.457Z" stroke="#A1FEB5" stroke-width="5.53951"/>
<path d="M52.2071 177.758C52.2071 179.434 53.566 180.793 55.2422 180.793C56.9185 180.793 58.2773 179.434 58.2773 177.758C58.2773 176.082 56.9185 174.723 55.2422 174.723C53.566 174.723 52.2071 176.082 52.2071 177.758Z" stroke="#A1FEB5" stroke-width="5.53951"/>
<path d="M229.389 136.579C229.389 138.254 230.749 139.627 232.437 139.627C234.124 139.627 235.484 138.267 235.484 136.579C235.484 134.891 234.124 133.531 232.437 133.531C230.749 133.531 229.389 134.891 229.389 136.579Z" stroke="#A1FEB5" stroke-width="5.53951"/>
<path d="M114.144 581.036C114.144 582.345 113.102 583.392 111.801 583.392C110.498 583.392 109.445 582.33 109.445 581.036C109.445 579.733 110.506 578.681 111.801 578.681C113.091 578.681 114.144 579.729 114.144 581.036Z" fill="#A1FEB5" stroke="#A1FEB5" stroke-width="1.38488"/>
<path d="M108.766 581.039C108.766 582.715 110.125 584.074 111.801 584.074C113.477 584.074 114.836 582.715 114.836 581.039C114.836 579.363 113.477 578.004 111.801 578.004C110.125 578.004 108.766 579.363 108.766 581.039Z" stroke="#A1FEB5" stroke-width="5.53951"/>
<path d="M52.3311 502.009C52.331 503.318 51.2896 504.364 49.9883 504.364C48.6851 504.364 47.6329 503.303 47.6328 502.009C47.6328 500.706 48.6939 499.653 49.9883 499.653C51.279 499.653 52.3311 500.702 52.3311 502.009Z" fill="#A1FEB5" stroke="#A1FEB5" stroke-width="1.38488"/>
<path d="M46.9406 502.009C46.9406 503.684 48.3008 505.056 49.9883 505.056C51.6759 505.056 53.0234 503.696 53.0234 502.009C53.0234 500.321 51.6633 498.961 49.9883 498.961C48.3134 498.961 46.9406 500.321 46.9406 502.009Z" stroke="#A1FEB5" stroke-width="5.53951"/>
<path d="M229.338 586.919C229.338 588.594 230.698 589.966 232.386 589.966C234.073 589.966 235.434 588.606 235.434 586.919C235.434 585.231 234.073 583.871 232.386 583.871C230.698 583.871 229.338 585.231 229.338 586.919Z" stroke="#A1FEB5" stroke-width="5.53951"/>
<path d="M232.512 137.523L196.002 317.892" stroke="#A1FEB5" stroke-width="1.38488"/>
<path d="M232.415 587.875L281.594 702.844" stroke="#A1FEB5" stroke-width="1.38488"/>
<path d="M190.159 19.9336L232.512 136.124" stroke="#A1FEB5" stroke-width="1.38488"/>
<path d="M196.003 319.301L232.449 586.466" stroke="#A1FEB5" stroke-width="1.38488"/>
</g>
<defs>
<clipPath id="clip0_646_3916">
<rect width="271.436" height="631.504" fill="white"/>
</clipPath>
<clipPath id="clip1_646_3916">
<rect width="631.504" height="155.106" fill="white" transform="translate(153.109 0.125) rotate(90)"/>
</clipPath>
</defs>
</svg>
