<svg width="155" height="661" viewBox="0 0 155 661" fill="none" xmlns="http://www.w3.org/2000/svg">
<g clip-path="url(#clip0_678_20226)">
<path d="M76.4704 460.77L88.5543 342.814L96 252.5L-1.28008 252.5L-1.2801 681.078L80.6146 681.078L72.1721 647.607L98.1485 567.22L76.4704 460.77Z" fill="#081E3F"/>
<path d="M86.4704 -14.23L98.5543 -132.186L104.385 -198.738L-0.999971 -198.738L-0.999953 253L96 253L82.1721 172.607L108.148 92.2199L86.4704 -14.23Z" fill="#081E3F"/>
<path d="M88.3356 341.43L121.992 288.535L96.1099 253.32L88.3356 341.438" stroke="#A1FEB5" stroke-width="0.887755"/>
<path d="M8.8137 301.16L95.793 252.778L18.5337 224.691L8.8137 301.168" stroke="#A1FEB5" stroke-width="0.887755"/>
<path d="M97.9755 567.145L125.723 480.416L76.7272 460.516L97.9755 567.153" stroke="#A1FEB5" stroke-width="0.887755"/>
<path d="M26.5199 511.509L76.3711 459.979L35.5537 390.809L26.5199 511.517" stroke="#A1FEB5" stroke-width="0.887755"/>
<path d="M89.2673 714.349L180.711 727.242L71.7729 649.313L89.2673 714.357" stroke="#A1FEB5" stroke-width="0.887755"/>
<path d="M8.30582 699.335L71.4453 648.789L32.2102 598.68L8.30582 699.343" stroke="#A1FEB5" stroke-width="0.887755"/>
<path d="M76.7262 459.455L149.109 363.902L88.303 342.484L76.7262 459.463" stroke="#A1FEB5" stroke-width="0.887755"/>
<path d="M35.5631 389.788L87.9492 341.963L8.79275 302.203L35.5631 389.796" stroke="#A1FEB5" stroke-width="0.887755"/>
<path d="M71.8183 648.287L149.094 652.639L97.9993 568.227L71.8183 648.295" stroke="#A1FEB5" stroke-width="0.887755"/>
<path d="M32.193 597.645L97.6172 567.685L26.5177 512.563L32.193 597.653" stroke="#A1FEB5" stroke-width="0.887755"/>
<path d="M86.2099 341.782C86.2099 342.861 87.0845 343.735 88.1635 343.735C89.2425 343.735 90.1172 342.861 90.1172 341.782C90.1172 340.703 89.2425 339.828 88.1635 339.828C87.0845 339.828 86.2099 340.703 86.2099 341.782Z" stroke="#A1FEB5" stroke-width="3.55102"/>
<path d="M6.70985 301.504C6.70985 302.578 7.58174 303.45 8.66353 303.45C9.74533 303.45 10.6172 302.578 10.6172 301.504C10.6172 300.43 9.74533 299.559 8.66353 299.559C7.58174 299.559 6.70985 300.43 6.70985 301.504Z" stroke="#A1FEB5" stroke-width="3.55102"/>
<path d="M119.925 288.356C119.925 289.429 120.797 290.301 121.878 290.301C122.96 290.301 123.832 289.429 123.832 288.356C123.832 287.282 122.96 286.41 121.878 286.41C120.797 286.41 119.925 287.282 119.925 288.356Z" stroke="#A1FEB5" stroke-width="3.55102"/>
<path d="M99.3369 567.505C99.3367 568.341 98.6637 569.015 97.8272 569.015C96.9921 569.014 96.3176 568.334 96.3174 567.505C96.3174 566.668 96.9907 565.995 97.8272 565.995C98.6638 565.995 99.3369 566.668 99.3369 567.505Z" fill="#A1FEB5" stroke="#A1FEB5" stroke-width="0.887755"/>
<path d="M95.8739 567.504C95.8739 568.578 96.7458 569.458 97.8276 569.458C98.9094 569.458 99.7813 568.586 99.7813 567.504C99.7813 566.423 98.9094 565.551 97.8276 565.551C96.7458 565.551 95.8739 566.423 95.8739 567.504Z" stroke="#A1FEB5" stroke-width="3.55102"/>
<path d="M27.8721 511.868C27.8719 512.705 27.1988 513.378 26.3623 513.378C25.5272 513.378 24.8528 512.698 24.8526 511.868C24.8526 511.032 25.5259 510.359 26.3623 510.358C27.199 510.358 27.8721 511.032 27.8721 511.868Z" fill="#A1FEB5" stroke="#A1FEB5" stroke-width="0.887755"/>
<path d="M24.4091 511.868C24.4091 512.947 25.2838 513.821 26.3628 513.821C27.4417 513.821 28.3164 512.947 28.3164 511.868C28.3164 510.789 27.4417 509.914 26.3628 509.914C25.2838 509.914 24.4091 510.789 24.4091 511.868Z" stroke="#A1FEB5" stroke-width="3.55102"/>
<path d="M123.667 480.25C123.667 481.324 124.539 482.196 125.621 482.196C126.702 482.196 127.574 481.324 127.574 480.25C127.574 479.177 126.702 478.305 125.621 478.305C124.539 478.305 123.667 479.177 123.667 480.25Z" stroke="#A1FEB5" stroke-width="3.55102"/>
<path d="M74.6317 459.813C74.6317 460.887 75.5036 461.758 76.5854 461.758C77.6672 461.758 78.5391 460.887 78.5391 459.813C78.5391 458.739 77.6672 457.867 76.5854 457.867C75.5036 457.867 74.6317 458.739 74.6317 459.813Z" stroke="#A1FEB5" stroke-width="3.55102"/>
<path d="M33.4682 390.133C33.4682 391.208 34.3393 392.079 35.4138 392.079C36.4883 392.079 37.3594 391.208 37.3594 390.133C37.3594 389.059 36.4883 388.188 35.4138 388.188C34.3393 388.188 33.4682 389.059 33.4682 390.133Z" stroke="#A1FEB5" stroke-width="3.55102"/>
<path d="M147.05 363.735C147.05 364.809 147.922 365.689 149.003 365.689C150.085 365.689 150.957 364.817 150.957 363.735C150.957 362.653 150.085 361.781 149.003 361.781C147.922 361.781 147.05 362.653 147.05 363.735Z" stroke="#A1FEB5" stroke-width="3.55102"/>
<path d="M73.169 648.646C73.1688 649.484 72.502 650.155 71.668 650.155C70.8327 650.155 70.1584 649.475 70.1582 648.646C70.1582 647.81 70.8382 647.136 71.668 647.136C72.4952 647.136 73.169 647.808 73.169 648.646Z" fill="#A1FEB5" stroke="#A1FEB5" stroke-width="0.887755"/>
<path d="M69.7221 648.649C69.7221 649.723 70.5932 650.594 71.6677 650.594C72.7422 650.594 73.6133 649.723 73.6133 648.649C73.6133 647.574 72.7422 646.703 71.6677 646.703C70.5932 646.703 69.7221 647.574 69.7221 648.649Z" stroke="#A1FEB5" stroke-width="3.55102"/>
<path d="M33.5479 597.989C33.5477 598.828 32.8809 599.499 32.0469 599.499C31.2116 599.499 30.5374 598.819 30.5371 597.989C30.5371 597.154 31.2171 596.479 32.0469 596.479C32.8741 596.48 33.5479 597.152 33.5479 597.989Z" fill="#A1FEB5" stroke="#A1FEB5" stroke-width="0.887755"/>
<path d="M30.0929 597.989C30.0929 599.063 30.9648 599.943 32.0466 599.943C33.1284 599.943 33.9922 599.071 33.9922 597.989C33.9922 596.907 33.1203 596.035 32.0466 596.035C30.9729 596.035 30.0929 596.907 30.0929 597.989Z" stroke="#A1FEB5" stroke-width="3.55102"/>
<path d="M147.015 652.419C147.015 653.492 147.886 654.372 148.968 654.372C150.05 654.372 150.922 653.5 150.922 652.419C150.922 651.337 150.05 650.465 148.968 650.465C147.886 650.465 147.015 651.337 147.015 652.419Z" stroke="#A1FEB5" stroke-width="3.55102"/>
<path d="M149.047 364.34L125.643 479.962" stroke="#A1FEB5" stroke-width="0.887755"/>
<path d="M148.986 653.031L180.512 726.73" stroke="#A1FEB5" stroke-width="0.887755"/>
<path d="M121.897 288.961L149.047 363.443" stroke="#A1FEB5" stroke-width="0.887755"/>
<path d="M125.648 480.863L149.012 652.125" stroke="#A1FEB5" stroke-width="0.887755"/>
<path d="M93.9992 253.047C93.9992 254.121 94.8711 255.001 95.9529 255.001C97.0347 255.001 97.8985 254.129 97.8985 253.047C97.8985 251.966 97.0266 251.094 95.9529 251.094C94.8791 251.094 93.9992 251.966 93.9992 253.047Z" stroke="#A1FEB5" stroke-width="3.55102"/>
<path d="M107.976 92.1448L135.723 5.41575L86.7272 -14.4844L107.976 92.1529" stroke="#A1FEB5" stroke-width="0.887755"/>
<path d="M36.5199 36.5091L86.3711 -15.0213L45.5537 -84.1914L36.5199 36.5172" stroke="#A1FEB5" stroke-width="0.887755"/>
<path d="M18.3058 224.335L81.4453 173.789L42.2102 123.68L18.3058 224.343" stroke="#A1FEB5" stroke-width="0.887755"/>
<path d="M95.9998 252.5L81.8181 173.295L107.999 93.2266L143 173.295L96.9998 252.5" stroke="#A1FEB5" stroke-width="0.887755"/>
<path d="M42.193 122.645L107.617 92.6855L36.5177 37.5625L42.193 122.653" stroke="#A1FEB5" stroke-width="0.887755"/>
<path d="M109.337 92.5049C109.337 93.3413 108.664 94.0147 107.827 94.0147C106.992 94.0144 106.318 93.3343 106.317 92.5049C106.317 91.6684 106.991 90.9953 107.827 90.9951C108.664 90.9951 109.337 91.6682 109.337 92.5049Z" fill="#A1FEB5" stroke="#A1FEB5" stroke-width="0.887755"/>
<path d="M105.874 92.5045C105.874 93.5782 106.746 94.4582 107.828 94.4582C108.909 94.4582 109.781 93.5863 109.781 92.5045C109.781 91.4227 108.909 90.5508 107.828 90.5508C106.746 90.5508 105.874 91.4227 105.874 92.5045Z" stroke="#A1FEB5" stroke-width="3.55102"/>
<path d="M37.8721 36.8682C37.8719 37.7046 37.1988 38.3779 36.3623 38.3779C35.5272 38.3777 34.8528 37.6976 34.8526 36.8682C34.8526 36.0317 35.5259 35.3586 36.3623 35.3584C37.199 35.3584 37.8721 36.0315 37.8721 36.8682Z" fill="#A1FEB5" stroke="#A1FEB5" stroke-width="0.887755"/>
<path d="M34.4091 36.8677C34.4091 37.9467 35.2838 38.8214 36.3628 38.8214C37.4417 38.8214 38.3164 37.9467 38.3164 36.8677C38.3164 35.7887 37.4417 34.9141 36.3628 34.9141C35.2838 34.9141 34.4091 35.7887 34.4091 36.8677Z" stroke="#A1FEB5" stroke-width="3.55102"/>
<path d="M133.667 5.25031C133.667 6.32403 134.539 7.19592 135.621 7.19592C136.702 7.19592 137.574 6.32403 137.574 5.25031C137.574 4.17659 136.702 3.30469 135.621 3.30469C134.539 3.30469 133.667 4.17659 133.667 5.25031Z" stroke="#A1FEB5" stroke-width="3.55102"/>
<path d="M83.169 173.646C83.1688 174.484 82.502 175.155 81.668 175.155C80.8327 175.155 80.1584 174.475 80.1582 173.646C80.1582 172.81 80.8382 172.136 81.668 172.136C82.4952 172.136 83.169 172.808 83.169 173.646Z" fill="#A1FEB5" stroke="#A1FEB5" stroke-width="0.887755"/>
<path d="M79.7221 173.649C79.7221 174.723 80.5932 175.594 81.6677 175.594C82.7422 175.594 83.6133 174.723 83.6133 173.649C83.6133 172.574 82.7422 171.703 81.6677 171.703C80.5932 171.703 79.7221 172.574 79.7221 173.649Z" stroke="#A1FEB5" stroke-width="3.55102"/>
<path d="M43.5479 122.989C43.5477 123.828 42.8809 124.499 42.0469 124.499C41.2116 124.499 40.5374 123.819 40.5371 122.989C40.5371 122.154 41.2171 121.479 42.0469 121.479C42.8741 121.48 43.5479 122.152 43.5479 122.989Z" fill="#A1FEB5" stroke="#A1FEB5" stroke-width="0.887755"/>
<path d="M40.0929 122.989C40.0929 124.063 40.9648 124.943 42.0466 124.943C43.1284 124.943 43.9922 124.071 43.9922 122.989C43.9922 121.907 43.1203 121.035 42.0466 121.035C40.9729 121.035 40.0929 121.907 40.0929 122.989Z" stroke="#A1FEB5" stroke-width="3.55102"/>
<path d="M159.047 -110.66L135.643 4.96244" stroke="#A1FEB5" stroke-width="0.887755"/>
<path d="M135.648 5.86329L142.5 173.5" stroke="#A1FEB5" stroke-width="0.887755"/>
<path d="M16.9992 224.047C16.9992 225.121 17.8711 226.001 18.9529 226.001C20.0347 226.001 20.8985 225.129 20.8985 224.047C20.8985 222.966 20.0266 222.094 18.9529 222.094C17.8791 222.094 16.9992 222.966 16.9992 224.047Z" stroke="#A1FEB5" stroke-width="3.55102"/>
<path d="M140.999 172.047C140.999 173.121 141.871 174.001 142.953 174.001C144.035 174.001 144.898 173.129 144.898 172.047C144.898 170.966 144.027 170.094 142.953 170.094C141.879 170.094 140.999 170.966 140.999 172.047Z" stroke="#A1FEB5" stroke-width="3.55102"/>
</g>
<defs>
<clipPath id="clip0_678_20226">
<rect width="661" height="155" fill="white" transform="translate(2.88932e-05 661) rotate(-90)"/>
</clipPath>
</defs>
</svg>
