<svg width="860" height="155" viewBox="0 0 860 155" fill="none" xmlns="http://www.w3.org/2000/svg">
<g clip-path="url(#clip0_662_6992)">
<path d="M200.23 76.4704L318.186 88.5543L408.5 96L408.5 -1.28011L-20.078 -1.28015L-20.078 80.6146L13.3929 72.1721L93.7801 98.1484L200.23 76.4704Z" fill="#081E3F"/>
<path d="M675.23 86.4704L793.186 98.5543L859.738 104.385L859.738 -1L408 -1L408 96L488.393 82.1721L568.78 108.148L675.23 86.4704Z" fill="#081E3F"/>
<path d="M319.57 88.3355L372.465 121.992L407.68 96.1099L319.562 88.3355" stroke="#A1FEB5" stroke-width="0.887755"/>
<path d="M359.84 8.81367L408.222 95.793L436.309 18.5337L359.832 8.81367" stroke="#A1FEB5" stroke-width="0.887755"/>
<path d="M93.8552 97.9755L180.584 125.723L200.484 76.7272L93.8471 97.9755" stroke="#A1FEB5" stroke-width="0.887755"/>
<path d="M149.491 26.5198L201.021 76.3711L270.191 35.5536L149.483 26.5198" stroke="#A1FEB5" stroke-width="0.887755"/>
<path d="M-53.3492 89.2672L-66.2419 180.711L11.6875 71.7729L-53.3572 89.2672" stroke="#A1FEB5" stroke-width="0.887755"/>
<path d="M-38.3348 8.30578L12.2107 71.4453L62.3203 32.2102L-38.3428 8.30578" stroke="#A1FEB5" stroke-width="0.887755"/>
<path d="M201.545 76.7262L297.098 149.109L318.516 88.303L201.537 76.7262" stroke="#A1FEB5" stroke-width="0.887755"/>
<path d="M271.212 35.563L319.037 87.9492L358.797 8.79272L271.204 35.563" stroke="#A1FEB5" stroke-width="0.887755"/>
<path d="M12.7128 71.8183L8.36136 149.094L92.7734 97.9993L12.7047 71.8183" stroke="#A1FEB5" stroke-width="0.887755"/>
<path d="M63.3554 32.193L93.3146 97.6172L148.438 26.5176L63.3473 32.193" stroke="#A1FEB5" stroke-width="0.887755"/>
<path d="M319.218 86.2098C318.139 86.2098 317.265 87.0845 317.265 88.1635C317.265 89.2425 318.139 90.1172 319.218 90.1172C320.297 90.1172 321.172 89.2425 321.172 88.1635C321.172 87.0845 320.297 86.2098 319.218 86.2098Z" stroke="#A1FEB5" stroke-width="3.55102"/>
<path d="M359.496 6.70982C358.422 6.70982 357.55 7.58171 357.55 8.6635C357.55 9.7453 358.422 10.6172 359.496 10.6172C360.57 10.6172 361.441 9.7453 361.441 8.66351C361.441 7.58171 360.57 6.70982 359.496 6.70982Z" stroke="#A1FEB5" stroke-width="3.55102"/>
<path d="M372.644 119.925C371.571 119.925 370.699 120.797 370.699 121.878C370.699 122.96 371.571 123.832 372.644 123.832C373.718 123.832 374.59 122.96 374.59 121.878C374.59 120.797 373.718 119.925 372.644 119.925Z" stroke="#A1FEB5" stroke-width="3.55102"/>
<path d="M93.4951 99.3369C92.6587 99.3367 91.9854 98.6637 91.9854 97.8271C91.9856 96.992 92.6657 96.3176 93.4951 96.3174C94.3316 96.3174 95.0047 96.9907 95.0049 97.8271C95.0049 98.6638 94.3318 99.3369 93.4951 99.3369Z" fill="#A1FEB5" stroke="#A1FEB5" stroke-width="0.887755"/>
<path d="M93.4955 95.8739C92.4218 95.8739 91.5419 96.7458 91.5419 97.8276C91.5419 98.9094 92.4137 99.7812 93.4955 99.7812C94.5773 99.7812 95.4492 98.9094 95.4492 97.8276C95.4492 96.7458 94.5773 95.8739 93.4955 95.8739Z" stroke="#A1FEB5" stroke-width="3.55102"/>
<path d="M149.132 27.8721C148.295 27.8718 147.622 27.1988 147.622 26.3623C147.622 25.5272 148.302 24.8528 149.132 24.8525C149.968 24.8525 150.641 25.5259 150.642 26.3623C150.642 27.199 149.968 27.8721 149.132 27.8721Z" fill="#A1FEB5" stroke="#A1FEB5" stroke-width="0.887755"/>
<path d="M149.132 24.409C148.053 24.409 147.179 25.2837 147.179 26.3627C147.179 27.4417 148.053 28.3164 149.132 28.3164C150.211 28.3164 151.086 27.4417 151.086 26.3627C151.086 25.2837 150.211 24.409 149.132 24.409Z" stroke="#A1FEB5" stroke-width="3.55102"/>
<path d="M180.75 123.667C179.676 123.667 178.804 124.539 178.804 125.621C178.804 126.702 179.676 127.574 180.75 127.574C181.823 127.574 182.695 126.702 182.695 125.621C182.695 124.539 181.823 123.667 180.75 123.667Z" stroke="#A1FEB5" stroke-width="3.55102"/>
<path d="M201.187 74.6317C200.113 74.6317 199.242 75.5036 199.242 76.5854C199.242 77.6672 200.113 78.5391 201.187 78.5391C202.261 78.5391 203.133 77.6672 203.133 76.5854C203.133 75.5036 202.261 74.6317 201.187 74.6317Z" stroke="#A1FEB5" stroke-width="3.55102"/>
<path d="M270.867 33.4681C269.792 33.4681 268.921 34.3392 268.921 35.4138C268.921 36.4883 269.792 37.3594 270.867 37.3594C271.941 37.3594 272.813 36.4883 272.813 35.4138C272.813 34.3392 271.941 33.4681 270.867 33.4681Z" stroke="#A1FEB5" stroke-width="3.55102"/>
<path d="M297.265 147.05C296.191 147.05 295.311 147.922 295.311 149.003C295.311 150.085 296.183 150.957 297.265 150.957C298.347 150.957 299.219 150.085 299.219 149.003C299.219 147.922 298.347 147.05 297.265 147.05Z" stroke="#A1FEB5" stroke-width="3.55102"/>
<path d="M12.3545 73.1689C11.5157 73.1687 10.8449 72.502 10.8447 71.668C10.8447 70.8326 11.5249 70.1584 12.3545 70.1582C13.19 70.1582 13.8643 70.8382 13.8643 71.668C13.8641 72.4952 13.1923 73.1689 12.3545 73.1689Z" fill="#A1FEB5" stroke="#A1FEB5" stroke-width="0.887755"/>
<path d="M12.3512 69.7221C11.2767 69.7221 10.4056 70.5931 10.4056 71.6677C10.4056 72.7422 11.2767 73.6133 12.3512 73.6133C13.4258 73.6133 14.2969 72.7422 14.2969 71.6677C14.2969 70.5931 13.4258 69.7221 12.3512 69.7221Z" stroke="#A1FEB5" stroke-width="3.55102"/>
<path d="M63.0107 33.5479C62.172 33.5476 61.5011 32.8808 61.501 32.0469C61.501 31.2116 62.1812 30.5373 63.0107 30.5371C63.8462 30.5371 64.5205 31.2171 64.5205 32.0469C64.5204 32.8741 63.8485 33.5479 63.0107 33.5479Z" fill="#A1FEB5" stroke="#A1FEB5" stroke-width="0.887755"/>
<path d="M63.0112 30.0929C61.9375 30.0929 61.0575 30.9648 61.0575 32.0466C61.0575 33.1284 61.9294 33.9922 63.0112 33.9922C64.093 33.9922 64.9648 33.1203 64.9648 32.0466C64.9648 30.9729 64.093 30.0929 63.0112 30.0929Z" stroke="#A1FEB5" stroke-width="3.55102"/>
<path d="M8.58149 147.015C7.50777 147.015 6.62782 147.886 6.62782 148.968C6.62782 150.05 7.49969 150.922 8.58149 150.922C9.66328 150.922 10.5352 150.05 10.5352 148.968C10.5352 147.886 9.66328 147.015 8.58149 147.015Z" stroke="#A1FEB5" stroke-width="3.55102"/>
<path d="M296.66 149.047L181.038 125.643" stroke="#A1FEB5" stroke-width="0.887755"/>
<path d="M7.96875 148.986L-65.7303 180.512" stroke="#A1FEB5" stroke-width="0.887755"/>
<path d="M372.039 121.897L297.557 149.047" stroke="#A1FEB5" stroke-width="0.887755"/>
<path d="M180.137 125.648L8.87452 149.012" stroke="#A1FEB5" stroke-width="0.887755"/>
<path d="M407.953 93.9992C406.879 93.9992 405.999 94.871 405.999 95.9528C405.999 97.0346 406.871 97.8984 407.953 97.8984C409.034 97.8984 409.906 97.0266 409.906 95.9528C409.906 94.8791 409.034 93.9992 407.953 93.9992Z" stroke="#A1FEB5" stroke-width="3.55102"/>
<path d="M794.57 98.3355L847.465 131.992L882.68 106.11L794.562 98.3355" stroke="#A1FEB5" stroke-width="0.887755"/>
<path d="M834.84 18.8137L883.222 105.793L911.309 28.5337L834.832 18.8137" stroke="#A1FEB5" stroke-width="0.887755"/>
<path d="M568.855 107.975L655.584 135.723L675.484 86.7272L568.847 107.975" stroke="#A1FEB5" stroke-width="0.887755"/>
<path d="M624.491 36.5198L676.021 86.3711L745.191 45.5536L624.483 36.5198" stroke="#A1FEB5" stroke-width="0.887755"/>
<path d="M436.665 18.3058L487.211 81.4453L537.32 42.2102L436.657 18.3058" stroke="#A1FEB5" stroke-width="0.887755"/>
<path d="M676.545 86.7262L772.098 159.109L793.516 98.303L676.537 86.7262" stroke="#A1FEB5" stroke-width="0.887755"/>
<path d="M746.212 45.563L794.037 97.9492L833.797 18.7927L746.204 45.563" stroke="#A1FEB5" stroke-width="0.887755"/>
<path d="M408.5 95.9998L487.705 81.8181L567.773 107.999L487.705 143L408.5 96.9998" stroke="#A1FEB5" stroke-width="0.887755"/>
<path d="M538.355 42.193L568.315 107.617L623.438 36.5176L538.347 42.193" stroke="#A1FEB5" stroke-width="0.887755"/>
<path d="M794.218 96.2098C793.139 96.2098 792.265 97.0845 792.265 98.1635C792.265 99.2425 793.139 100.117 794.218 100.117C795.297 100.117 796.172 99.2425 796.172 98.1635C796.172 97.0845 795.297 96.2098 794.218 96.2098Z" stroke="#A1FEB5" stroke-width="3.55102"/>
<path d="M834.496 16.7098C833.422 16.7098 832.55 17.5817 832.55 18.6635C832.55 19.7453 833.422 20.6172 834.496 20.6172C835.57 20.6172 836.441 19.7453 836.441 18.6635C836.441 17.5817 835.57 16.7098 834.496 16.7098Z" stroke="#A1FEB5" stroke-width="3.55102"/>
<path d="M847.644 129.925C846.571 129.925 845.699 130.797 845.699 131.878C845.699 132.96 846.571 133.832 847.644 133.832C848.718 133.832 849.59 132.96 849.59 131.878C849.59 130.797 848.718 129.925 847.644 129.925Z" stroke="#A1FEB5" stroke-width="3.55102"/>
<path d="M568.495 109.337C567.659 109.337 566.985 108.664 566.985 107.827C566.986 106.992 567.666 106.318 568.495 106.317C569.332 106.317 570.005 106.991 570.005 107.827C570.005 108.664 569.332 109.337 568.495 109.337Z" fill="#A1FEB5" stroke="#A1FEB5" stroke-width="0.887755"/>
<path d="M568.496 105.874C567.422 105.874 566.542 106.746 566.542 107.828C566.542 108.909 567.414 109.781 568.496 109.781C569.577 109.781 570.449 108.909 570.449 107.828C570.449 106.746 569.577 105.874 568.496 105.874Z" stroke="#A1FEB5" stroke-width="3.55102"/>
<path d="M624.132 37.8721C623.295 37.8718 622.622 37.1988 622.622 36.3623C622.622 35.5272 623.302 34.8528 624.132 34.8525C624.968 34.8525 625.641 35.5259 625.642 36.3623C625.642 37.199 624.968 37.8721 624.132 37.8721Z" fill="#A1FEB5" stroke="#A1FEB5" stroke-width="0.887755"/>
<path d="M624.132 34.409C623.053 34.409 622.179 35.2837 622.179 36.3627C622.179 37.4417 623.053 38.3164 624.132 38.3164C625.211 38.3164 626.086 37.4417 626.086 36.3627C626.086 35.2837 625.211 34.409 624.132 34.409Z" stroke="#A1FEB5" stroke-width="3.55102"/>
<path d="M655.75 133.667C654.676 133.667 653.804 134.539 653.804 135.621C653.804 136.702 654.676 137.574 655.75 137.574C656.823 137.574 657.695 136.702 657.695 135.621C657.695 134.539 656.823 133.667 655.75 133.667Z" stroke="#A1FEB5" stroke-width="3.55102"/>
<path d="M676.187 84.6317C675.113 84.6317 674.242 85.5036 674.242 86.5854C674.242 87.6672 675.113 88.5391 676.187 88.5391C677.261 88.5391 678.133 87.6672 678.133 86.5854C678.133 85.5036 677.261 84.6317 676.187 84.6317Z" stroke="#A1FEB5" stroke-width="3.55102"/>
<path d="M745.867 43.4681C744.792 43.4681 743.921 44.3392 743.921 45.4138C743.921 46.4883 744.792 47.3594 745.867 47.3594C746.941 47.3594 747.813 46.4883 747.813 45.4138C747.813 44.3392 746.941 43.4681 745.867 43.4681Z" stroke="#A1FEB5" stroke-width="3.55102"/>
<path d="M487.354 83.1689C486.516 83.1687 485.845 82.502 485.845 81.668C485.845 80.8326 486.525 80.1584 487.354 80.1582C488.19 80.1582 488.864 80.8382 488.864 81.668C488.864 82.4952 488.192 83.1689 487.354 83.1689Z" fill="#A1FEB5" stroke="#A1FEB5" stroke-width="0.887755"/>
<path d="M487.351 79.7221C486.277 79.7221 485.406 80.5931 485.406 81.6677C485.406 82.7422 486.277 83.6133 487.351 83.6133C488.426 83.6133 489.297 82.7422 489.297 81.6677C489.297 80.5931 488.426 79.7221 487.351 79.7221Z" stroke="#A1FEB5" stroke-width="3.55102"/>
<path d="M538.011 43.5479C537.172 43.5476 536.501 42.8808 536.501 42.0469C536.501 41.2116 537.181 40.5373 538.011 40.5371C538.846 40.5371 539.521 41.2171 539.521 42.0469C539.52 42.8741 538.848 43.5479 538.011 43.5479Z" fill="#A1FEB5" stroke="#A1FEB5" stroke-width="0.887755"/>
<path d="M538.011 40.0929C536.937 40.0929 536.057 40.9648 536.057 42.0466C536.057 43.1284 536.929 43.9922 538.011 43.9922C539.093 43.9922 539.965 43.1203 539.965 42.0466C539.965 40.9729 539.093 40.0929 538.011 40.0929Z" stroke="#A1FEB5" stroke-width="3.55102"/>
<path d="M771.66 159.047L656.038 135.643" stroke="#A1FEB5" stroke-width="0.887755"/>
<path d="M847.039 131.897L772.557 159.047" stroke="#A1FEB5" stroke-width="0.887755"/>
<path d="M655.137 135.648L487.5 142.5" stroke="#A1FEB5" stroke-width="0.887755"/>
<path d="M436.953 16.9992C435.879 16.9992 434.999 17.871 434.999 18.9528C434.999 20.0346 435.871 20.8984 436.953 20.8984C438.034 20.8984 438.906 20.0266 438.906 18.9528C438.906 17.8791 438.034 16.9992 436.953 16.9992Z" stroke="#A1FEB5" stroke-width="3.55102"/>
<path d="M488.953 140.999C487.879 140.999 486.999 141.871 486.999 142.953C486.999 144.035 487.871 144.898 488.953 144.898C490.034 144.898 490.906 144.027 490.906 142.953C490.906 141.879 490.034 140.999 488.953 140.999Z" stroke="#A1FEB5" stroke-width="3.55102"/>
</g>
<defs>
<clipPath id="clip0_662_6992">
<rect width="860" height="155" fill="white"/>
</clipPath>
</defs>
</svg>
