<svg width="155" height="661" viewBox="0 0 155 661" fill="none" xmlns="http://www.w3.org/2000/svg">
<g clip-path="url(#clip0_678_20226)">
<path d="M104.385 -198.738L98.5537 -132.186L86.4698 -14.2305L108.147 92.2197L82.1709 172.607L95.9131 252.5H95.9991L95.9707 252.838L95.9991 253H95.958L88.5537 342.813L76.4698 460.77L98.1475 567.22L72.1709 647.607L80.6133 681.078H-1.28122V252.5H-1.00095V-198.738H104.385Z" fill="#081E3F"/>
<path d="M4.9336 301.502C4.93377 299.443 6.60482 297.781 8.66212 297.781C8.7066 297.781 8.75083 297.784 8.79493 297.785L17.7207 227.565C16.2636 227.055 15.2238 225.667 15.2236 224.046C15.2236 222.029 16.8226 220.399 18.8037 220.32L41.0625 126.584C39.4767 126.151 38.3176 124.698 38.3174 122.987C38.3174 121.099 39.719 119.55 41.5234 119.296L36.2744 40.5928C34.2558 40.5459 32.634 38.896 32.6338 36.8662C32.6338 34.8188 34.2835 33.1573 36.3262 33.1377L44.8828 -81.1855C43.0793 -81.4435 41.6924 -82.9944 41.6924 -84.8691C41.6925 -86.4742 42.7094 -87.8414 44.1338 -88.3633L19.2383 -169.82C19.0508 -169.791 18.8586 -169.776 18.6631 -169.776C16.6057 -169.777 14.9346 -171.439 14.9346 -173.498C14.9347 -175.557 16.6058 -177.218 18.6631 -177.219C18.7072 -177.219 18.7511 -177.216 18.7949 -177.215L28.0937 -250.366L28.1631 -250.917L28.6855 -250.728L105.755 -222.71L105.771 -222.893L105.959 -222.636L106.858 -222.31L106.391 -222.049L106.468 -221.944L130.033 -189.88C130.577 -190.19 131.207 -190.367 131.878 -190.367C133.935 -190.367 135.607 -188.705 135.607 -186.646C135.607 -185.125 134.695 -183.821 133.389 -183.243L158.291 -114.927C158.521 -114.971 158.759 -114.996 159.003 -114.996C161.065 -114.996 162.732 -113.329 162.732 -111.267C162.732 -109.204 161.065 -107.538 159.003 -107.538C158.957 -107.538 158.912 -107.539 158.867 -107.541L136.755 1.7041C138.258 2.18258 139.349 3.58508 139.35 5.24805C139.35 7.10391 137.991 8.6372 136.217 8.92188L142.731 168.324C142.805 168.32 142.879 168.316 142.953 168.316C145.012 168.317 146.674 169.988 146.674 172.046C146.674 174.098 145.025 175.774 142.953 175.774C142.669 175.774 142.392 175.742 142.126 175.682L98.6729 250.502C99.2936 251.169 99.6738 252.063 99.6738 253.046C99.6737 254.129 99.2148 255.108 98.4766 255.79L120.034 285.121C120.578 284.812 121.207 284.634 121.877 284.634C123.934 284.634 125.606 286.296 125.606 288.354C125.606 289.875 124.694 291.179 123.389 291.757L148.291 360.072C148.521 360.028 148.759 360.003 149.002 360.003C151.064 360.003 152.731 361.67 152.731 363.732C152.731 365.795 151.064 367.461 149.002 367.461C148.957 367.461 148.912 367.46 148.867 367.458L126.755 476.704C128.259 477.182 129.35 478.586 129.351 480.249C129.351 482.004 128.137 483.47 126.505 483.865L148.99 648.688C151.043 648.7 152.698 650.362 152.698 652.417C152.698 653.88 151.859 655.144 150.635 655.755L180.92 726.554L180.666 726.663L180.969 726.879L180.649 727.68L89.2051 714.787L89.2666 714.355L88.8389 714.471L72.125 652.338C71.975 652.356 71.822 652.366 71.667 652.366C70.6419 652.366 69.7132 651.952 69.0401 651.281L8.58304 699.68L8.3135 699.342L8.30569 699.341L7.87405 699.238L31.0625 601.584C29.4766 601.151 28.3177 599.699 28.3174 597.987C28.3174 596.099 29.7189 594.55 31.5235 594.296L26.2744 515.592C24.2555 515.545 22.6333 513.895 22.6328 511.865C22.6328 509.818 24.283 508.156 26.3262 508.137L34.8828 393.815C33.0791 393.558 31.6915 392.007 31.6914 390.132C31.6915 388.526 32.709 387.158 34.1338 386.637L9.23829 305.18C9.05049 305.209 8.85802 305.224 8.66212 305.224C6.60478 305.223 4.93369 303.561 4.9336 301.502ZM179.706 725.977L149.796 656.053C149.53 656.113 149.253 656.146 148.969 656.146C147.055 656.145 145.49 654.707 145.268 652.867L75.375 648.933C75.3207 649.643 75.0679 650.296 74.6709 650.839L179.706 725.977ZM89.6182 713.947L178.982 726.548L74.0606 651.493C73.744 651.76 73.3828 651.974 72.9893 652.124L89.6182 713.947ZM89.0967 -17.9404C89.8446 -17.2606 90.3144 -16.2808 90.3144 -15.1895C90.3144 -14.6376 90.1929 -14.115 89.9775 -13.6445L132.304 3.54688C132.923 2.34669 134.176 1.52752 135.62 1.52734C135.708 1.52734 135.796 1.53206 135.883 1.53809L157.99 -107.678C157.744 -107.747 157.508 -107.841 157.285 -107.957L89.0967 -17.9404ZM100.49 -136.132C101.344 -135.448 101.893 -134.399 101.893 -133.22C101.893 -132.724 101.795 -132.252 101.619 -131.819L155.605 -112.804C155.975 -113.622 156.63 -114.281 157.445 -114.655L132.539 -182.983C132.324 -182.945 132.104 -182.925 131.878 -182.925C131.371 -182.925 130.886 -183.026 130.445 -183.209L100.49 -136.132ZM87.4941 -18.7978C87.804 -18.7204 88.0983 -18.6044 88.3721 -18.4551L156.552 -108.458C155.768 -109.143 155.275 -110.15 155.274 -111.267C155.274 -111.503 155.296 -111.733 155.338 -111.957L101.183 -131.032C100.558 -130.172 99.5742 -129.589 98.4512 -129.503L87.4941 -18.7978ZM99.4063 564.126C100.676 564.72 101.555 566.007 101.555 567.504C101.555 568.78 100.916 569.904 99.9405 570.576L147.424 649.022C147.642 648.923 147.871 648.845 148.108 648.789L125.624 483.971L125.621 483.971C125.432 483.971 125.245 483.957 125.063 483.93L99.4063 564.126ZM79.0957 457.061C79.8434 457.74 80.3134 458.719 80.3135 459.811C80.3135 460.362 80.1928 460.885 79.9776 461.355L122.306 478.548C122.925 477.348 124.177 476.529 125.621 476.528C125.709 476.528 125.796 476.533 125.882 476.539L147.99 367.321C147.744 367.252 147.508 367.159 147.285 367.043L79.0957 457.061ZM90.4912 338.866C91.3451 339.55 91.8926 340.6 91.8926 341.778C91.8925 342.275 91.7942 342.748 91.6182 343.181L145.605 362.195C145.974 361.377 146.63 360.718 147.445 360.344L122.539 292.017C122.324 292.055 122.103 292.076 121.877 292.076C121.37 292.076 120.885 291.975 120.444 291.792L90.4912 338.866ZM73.2676 645.286C74.3467 645.801 75.1372 646.82 75.3369 648.039L145.267 651.977C145.385 650.966 145.906 650.08 146.666 649.483L99.1533 570.989C98.7409 571.146 98.2933 571.232 97.8252 571.232C97.7113 571.232 97.5986 571.227 97.4873 571.217L73.2676 645.286ZM77.4942 456.203C77.804 456.281 78.0983 456.396 78.3721 456.546L146.552 366.542C145.768 365.857 145.274 364.85 145.273 363.732C145.273 363.497 145.295 363.266 145.337 363.043L91.1817 343.968C90.5566 344.828 89.5735 345.409 88.4512 345.495L77.4942 456.203ZM142.879 171.91L143.011 172.213C143.075 172.191 143.123 172.132 143.123 172.046C143.123 171.94 143.041 171.867 142.953 171.867C142.926 171.867 142.9 171.875 142.877 171.887L142.879 171.91ZM109.407 89.124C110.678 89.7181 111.557 91.0058 111.557 92.5029C111.556 93.9224 110.767 95.1542 109.602 95.7842L141.446 168.636C141.577 168.578 141.711 168.526 141.85 168.483L135.329 8.95801C135.24 8.95111 135.151 8.9418 135.063 8.92871L109.407 89.124ZM95.8809 249.318C95.9049 249.318 95.929 249.316 95.9531 249.316C96.7032 249.316 97.3999 249.539 97.9834 249.921L141.276 175.377C140.057 174.762 139.224 173.496 139.224 172.046C139.224 170.84 139.796 169.773 140.68 169.092L108.776 96.1104C108.473 96.1896 108.155 96.2314 107.827 96.2314C107.713 96.2314 107.6 96.2259 107.488 96.2158L83.2686 170.288C84.5221 170.887 85.3885 172.165 85.3887 173.646C85.3887 175.248 84.3766 176.614 82.957 177.139L95.8809 249.318ZM107.756 88.7754C107.78 88.7749 107.803 88.7734 107.827 88.7734C108.08 88.7734 108.326 88.799 108.564 88.8467L134.207 8.69336C132.849 8.1382 131.892 6.80664 131.892 5.24805C131.892 4.94861 131.927 4.65765 131.994 4.37891L89.5078 -12.8779C89.0579 -12.3122 88.447 -11.8804 87.7441 -11.6514L107.756 88.7754ZM99.0693 -136.837C99.3011 -136.779 99.524 -136.7 99.7363 -136.601L129.671 -183.646C128.748 -184.322 128.149 -185.414 128.149 -186.646C128.149 -187.715 128.6 -188.675 129.32 -189.353L106.449 -220.472L99.0693 -136.837ZM97.7559 563.776C97.7789 563.776 97.802 563.774 97.8252 563.774C98.0781 563.774 98.3249 563.801 98.5635 563.849L124.207 483.693C122.85 483.138 121.893 481.807 121.893 480.249C121.893 479.95 121.929 479.659 121.996 479.38L79.5069 462.122C79.0572 462.687 78.4465 463.119 77.7442 463.348L97.7559 563.776ZM89.0693 338.161C89.3015 338.219 89.5247 338.299 89.7373 338.398L119.67 291.355C118.747 290.679 118.148 289.588 118.148 288.354C118.149 287.286 118.599 286.325 119.32 285.647L97.7578 256.31C97.3065 256.56 96.7967 256.719 96.252 256.762L89.0693 338.161ZM39.166 34.4102C39.7414 35.0664 40.0918 35.9249 40.0918 36.8662C40.0917 37.7312 39.7961 38.5266 39.3018 39.1592L104.987 90.0859C105.473 89.5156 106.126 89.0941 106.873 88.8975L86.873 -11.4795C86.778 -11.4722 86.6819 -11.4678 86.585 -11.4678C85.7253 -11.4679 84.9328 -11.7579 84.3018 -12.2461L39.166 34.4102ZM79.5186 170.61C80.1258 170.18 80.867 169.926 81.668 169.926C81.9276 169.926 82.1811 169.952 82.4258 170.003L106.614 96.0293C105.813 95.7537 105.137 95.2129 104.688 94.5137L45.5059 121.614C45.6739 122.039 45.7676 122.502 45.7676 122.987C45.7675 124.124 45.2613 125.145 44.458 125.83L79.5186 170.61ZM94.9189 -135.057C95.5596 -136.186 96.7718 -136.949 98.1631 -136.949C98.1715 -136.949 98.18 -136.948 98.1885 -136.948L105.66 -221.642L22.0215 -175.118C22.259 -174.629 22.3925 -174.079 22.3926 -173.498C22.3926 -172.851 22.2274 -172.244 21.9375 -171.715L94.9189 -135.057ZM19.6738 -177.079C20.4145 -176.872 21.0618 -176.442 21.5391 -175.866L104.729 -222.141L28.9043 -249.704L19.6738 -177.079ZM42.4121 119.276C43.5151 119.384 44.4737 119.974 45.0811 120.831L104.301 93.7148C104.17 93.3344 104.099 92.9266 104.099 92.5029C104.099 91.899 104.242 91.3294 104.496 90.8252L38.6719 39.793C38.2358 40.1374 37.7213 40.3864 37.1592 40.5088L42.4121 119.276ZM84.8447 -18.4805C85.3644 -18.7545 85.9566 -18.9101 86.585 -18.9102C86.5944 -18.9102 86.6039 -18.9092 86.6133 -18.9092L97.5615 -129.54C96.8639 -129.653 96.2315 -129.96 95.7207 -130.403L48.3476 -87.1553C48.84 -86.5243 49.1347 -85.7315 49.1348 -84.8691C49.1348 -83.5834 48.4827 -82.4499 47.4912 -81.7812L84.8447 -18.4805ZM29.166 509.409C29.7411 510.065 30.0908 510.924 30.0908 511.865C30.0906 512.73 29.7952 513.526 29.3008 514.158L94.9863 565.086C95.4721 564.516 96.1261 564.094 96.8731 563.897L76.8731 463.521C76.7777 463.528 76.6813 463.532 76.584 463.532C75.7246 463.532 74.9327 463.242 74.3018 462.754L29.166 509.409ZM69.5176 645.608C70.1248 645.178 70.8662 644.924 71.667 644.924C71.927 644.924 72.1809 644.952 72.4258 645.003L96.6133 571.03C95.8119 570.755 95.1356 570.214 94.6865 569.515L35.5059 596.614C35.6738 597.039 35.7676 597.503 35.7676 597.987C35.7674 599.124 35.2606 600.145 34.4571 600.83L69.5176 645.608ZM84.918 339.942C85.5585 338.812 86.7714 338.049 88.1631 338.049C88.1715 338.049 88.1801 338.05 88.1885 338.05L95.3623 256.729C94.2563 256.553 93.3153 255.89 92.7598 254.972L12.0205 299.883C12.2577 300.372 12.3916 300.921 12.3916 301.502C12.3916 302.148 12.2262 302.755 11.9365 303.284L84.918 339.942ZM45 -88.5654C45.136 -88.5805 45.274 -88.5898 45.4141 -88.5898C46.2862 -88.5898 47.0873 -88.2886 47.7217 -87.7861L95.124 -131.061C94.6903 -131.67 94.4347 -132.415 94.4346 -133.22C94.4346 -133.573 94.4846 -133.914 94.5762 -134.237L21.4141 -170.985C21.0493 -170.588 20.5999 -170.269 20.0937 -170.06L45 -88.5654ZM22.0166 221.932C22.4303 222.533 22.6738 223.261 22.6738 224.046C22.6738 224.6 22.5524 225.127 22.3359 225.601L92.7197 251.188C93.2114 250.335 94.0302 249.697 95.001 249.44L82.0908 177.344C81.952 177.359 81.811 177.368 81.668 177.368C80.6424 177.368 79.7133 176.953 79.04 176.282L22.0166 221.932ZM32.4121 594.276C33.5151 594.384 34.4738 594.973 35.0811 595.831L94.2989 568.716C94.1679 568.335 94.0967 567.927 94.0967 567.504C94.0967 566.9 94.2409 566.33 94.4951 565.825L28.6709 514.791C28.2351 515.135 27.721 515.384 27.1592 515.507L32.4121 594.276ZM9.67384 297.922C10.414 298.13 11.0612 298.558 11.5381 299.134L92.3926 254.159C92.2824 253.807 92.2237 253.433 92.2236 253.046C92.2236 252.684 92.276 252.334 92.3721 252.004L21.8623 226.372C21.1834 227.225 20.1379 227.774 18.9531 227.774C18.8309 227.774 18.71 227.768 18.5908 227.757L9.67384 297.922ZM74.8447 456.52C75.3643 456.246 75.9559 456.09 76.584 456.09C76.5938 456.09 76.6036 456.091 76.6133 456.091L87.5615 345.458C86.8644 345.345 86.2323 345.039 85.7217 344.596L38.3467 387.846C38.8391 388.477 39.1337 389.269 39.1338 390.132C39.1337 391.417 38.4825 392.551 37.4912 393.22L74.8447 456.52ZM35 386.435C35.1357 386.42 35.2734 386.411 35.4131 386.411C36.2851 386.411 37.0864 386.712 37.7207 387.215L85.124 343.938C84.6901 343.329 84.4347 342.583 84.4346 341.778C84.4346 341.426 84.484 341.086 84.5752 340.763L11.4141 304.015C11.0496 304.412 10.5996 304.73 10.0938 304.939L35 386.435ZM37.21 33.2354C37.6831 33.3454 38.1209 33.5453 38.5059 33.8164L83.6689 -12.8691C83.1605 -13.5049 82.8564 -14.3111 82.8564 -15.1894C82.8565 -16.3001 83.3434 -17.2946 84.1143 -17.9756L46.7002 -81.376C46.4063 -81.2677 46.0949 -81.1959 45.7715 -81.165L37.21 33.2354ZM19.6992 220.393C20.3558 220.526 20.948 220.834 21.4287 221.264L78.4902 175.585C78.145 175.02 77.9463 174.357 77.9463 173.646C77.9464 172.713 78.2909 171.859 78.8594 171.206L43.7158 126.322C43.2152 126.574 42.649 126.716 42.0469 126.716C42.0126 126.716 41.9784 126.715 41.9443 126.714L19.6992 220.393ZM27.21 508.234C27.6835 508.345 28.1217 508.545 28.5069 508.816L73.668 462.132C73.1592 461.496 72.8555 460.689 72.8555 459.811C72.8556 458.7 73.3424 457.705 74.1133 457.024L36.7002 393.624C36.4062 393.732 36.095 393.805 35.7715 393.836L27.21 508.234ZM68.4903 650.585C68.1445 650.02 67.9453 649.355 67.9453 648.645C67.9455 647.711 68.2906 646.859 68.8584 646.206L33.7149 601.322C33.2145 601.573 32.6487 601.716 32.0469 601.716C32.0127 601.716 31.9783 601.715 31.9444 601.714L9.03811 698.178L68.4903 650.585ZM18.4951 -173.444L18.71 -173.337C18.7895 -173.357 18.8418 -173.424 18.8418 -173.498C18.8416 -173.586 18.7689 -173.668 18.6631 -173.668C18.5575 -173.668 18.4855 -173.586 18.4853 -173.498C18.4853 -173.48 18.4891 -173.462 18.4951 -173.444ZM8.49415 301.556L8.70899 301.663C8.78837 301.643 8.84075 301.576 8.84083 301.502C8.84067 301.414 8.76786 301.332 8.66212 301.332C8.55648 301.332 8.48455 301.414 8.48439 301.502C8.4844 301.52 8.48814 301.538 8.49415 301.556Z" fill="url(#paint0_linear_678_20226)"/>
</g>
<defs>
<linearGradient id="paint0_linear_678_20226" x1="92.9512" y1="122" x2="92.9512" y2="573" gradientUnits="userSpaceOnUse">
<stop stop-color="#78D1F5"/>
<stop offset="1" stop-color="#B8DF88"/>
</linearGradient>
<clipPath id="clip0_678_20226">
<rect width="661" height="155" fill="white" transform="translate(2.88932e-05 661) rotate(-90)"/>
</clipPath>
</defs>
</svg>
