<svg width="1115" height="677" viewBox="0 0 1115 677" fill="none" xmlns="http://www.w3.org/2000/svg">
<path d="M988.055 0C993.701 5.67628e-05 998.296 4.4817 998.296 9.99707C998.296 13.9846 995.874 17.4077 992.409 19.0137L1069.54 230.495C1070.33 230.299 1071.15 230.166 1072 230.166C1077.63 230.166 1082.23 234.656 1082.23 240.171C1082.23 244.072 1079.9 247.425 1076.56 249.07L1101.22 311.863C1102.09 311.628 1102.99 311.464 1103.92 311.464C1109.57 311.464 1114.16 315.96 1114.17 321.468C1114.17 326.975 1109.59 331.449 1103.96 331.465L1094.49 428.117C1099.19 429.018 1102.76 433.069 1102.76 437.926C1102.76 443.441 1098.17 447.931 1092.52 447.931C1092.38 447.931 1092.25 447.892 1092.12 447.892L1070.48 600.575C1074.97 601.633 1078.33 605.566 1078.33 610.274C1078.33 615.79 1073.74 620.279 1068.09 620.279C1065.13 620.279 1062.49 619.034 1060.62 617.067L1000.53 661.77C1001.5 663.297 1002.09 665.084 1002.09 667.003C1002.09 672.518 997.494 677.008 991.848 677.008C986.202 677.008 981.606 672.518 981.606 667.003C981.606 666.447 981.687 665.914 981.775 665.382L796.407 616.848C794.94 620.624 791.226 623.335 786.855 623.335C781.21 623.335 776.614 618.845 776.614 613.33C776.614 612.359 776.799 611.442 777.063 610.557L650.616 561.082C648.908 564.278 645.516 566.488 641.578 566.488C635.932 566.488 631.337 561.999 631.337 556.483C631.337 556.374 631.369 556.264 631.369 556.154L552.471 545.97C551.412 550.388 547.37 553.702 542.526 553.702C537.322 553.702 533.055 549.871 532.422 544.943L297.949 551.306C297.58 556.484 293.346 560.604 287.788 560.604C282.23 560.604 277.715 556.248 277.579 550.851L115.805 539.311C114.971 544.019 110.793 547.615 105.74 547.615C100.094 547.615 95.499 543.126 95.499 537.61C95.4991 536.835 95.6109 536.091 95.7793 535.362L19.5518 510.198C17.9398 513.661 14.3873 516.09 10.2412 516.09V516.098C4.59532 516.098 0 511.608 0 506.101C0.000146809 500.593 4.59541 496.104 10.2412 496.104C13.7057 496.104 16.7617 497.804 18.6143 500.382L134.307 436.853C133.753 435.615 133.433 434.268 133.433 432.834C133.433 427.319 138.019 422.829 143.665 422.829C147.587 422.829 150.963 425.015 152.68 428.188L284.331 375.815C284.058 374.915 283.866 373.974 283.866 372.987C283.866 367.472 288.462 362.982 294.107 362.982C294.925 362.982 295.703 363.092 296.465 363.272L330.437 266.769C326.916 265.186 324.454 261.723 324.454 257.696C324.454 252.181 329.049 247.691 334.695 247.691C336.909 247.691 338.946 248.397 340.622 249.564L499.701 71.2695C497.977 69.4755 496.895 67.0777 496.895 64.4297C496.895 58.9144 501.49 54.4336 507.136 54.4336C512.044 54.4337 516.141 57.8177 517.136 62.3145L977.829 10.1689C977.829 10.1142 977.814 10.0595 977.813 9.99707C977.813 4.4895 982.409 0 988.055 0ZM831.51 450.892C830.002 451.753 828.269 452.278 826.4 452.278C825.968 452.278 825.558 452.2 825.142 452.153L790.063 603.882C794.129 605.206 797.089 608.919 797.089 613.33C797.089 613.886 797.008 614.419 796.92 614.952L982.288 663.485H982.296C982.889 661.942 983.868 660.603 985.111 659.529L831.51 450.892ZM1006.14 526.901C1004.75 527.685 1003.16 528.163 1001.46 528.226L993.46 657.155C995.762 657.523 997.791 658.613 999.314 660.211L1059.4 615.508C1058.43 613.98 1057.84 612.194 1057.84 610.274C1057.84 607.274 1059.24 604.603 1061.39 602.77L1006.14 526.901ZM835.238 447.202C834.677 448.166 833.963 449.02 833.121 449.748L986.724 658.386C988.127 657.587 989.723 657.101 991.447 657.038H991.438L999.442 528.107C994.566 527.347 990.821 523.242 990.821 518.268C990.821 517.171 991.054 516.121 991.391 515.134L835.238 447.202ZM777.793 608.739H777.81L777.796 608.733C777.795 608.735 777.794 608.737 777.793 608.739ZM643.295 488.16C641.875 489.429 640.094 490.307 638.105 490.628L641.899 546.526C647.393 546.699 651.811 551.086 651.812 556.491C651.812 557.463 651.627 558.379 651.362 559.265L777.796 608.733C778.044 608.273 778.315 607.829 778.627 607.415L643.295 488.16ZM646.566 479.73C646.607 480.083 646.679 480.428 646.679 480.788C646.679 483.005 645.908 485.042 644.649 486.703L779.982 605.958C781.802 604.337 784.198 603.327 786.842 603.325C787.274 603.325 787.682 603.404 788.099 603.451L823.177 451.723C820.073 450.704 817.651 448.299 816.665 445.243L646.566 479.73ZM1009.29 512.36C1010.54 514.021 1011.31 516.05 1011.31 518.268C1011.31 521.268 1009.92 523.94 1007.77 525.773L1063.01 601.641C1064.51 600.795 1066.22 600.278 1068.08 600.278C1068.21 600.278 1068.34 600.317 1068.48 600.317H1068.48L1090.12 447.633C1088.41 447.233 1086.88 446.41 1085.63 445.29L1009.29 512.36ZM551.452 538.911C552.262 540.345 552.76 541.959 552.76 543.706C552.76 543.816 552.728 543.926 552.728 544.043L631.618 554.219C632.549 550.318 635.813 547.317 639.895 546.651L636.108 490.753C633.109 490.659 630.455 489.296 628.643 487.196L551.452 538.911ZM296.674 545.735C297.307 546.84 297.724 548.054 297.893 549.354L532.365 543.001H532.374C532.55 540.572 533.585 538.379 535.221 536.733L458.151 447.335C456.427 448.628 454.294 449.427 451.96 449.427C448.616 449.427 445.665 447.829 443.796 445.393L296.674 545.735ZM150.827 439.947C148.975 441.725 146.458 442.821 143.668 442.821C142.82 442.821 142.012 442.689 141.228 442.501L110.062 528.578C113.463 530.145 115.837 533.467 115.941 537.353L277.715 548.9C277.971 547.459 278.517 546.126 279.327 544.967L150.827 439.947ZM303.041 377.758C301.397 380.672 298.342 382.686 294.757 382.913V382.921L289.136 540.744C291.686 541.073 293.923 542.319 295.519 544.137L442.745 443.724C442.112 442.415 441.719 440.974 441.719 439.431C441.719 438.13 441.991 436.892 442.456 435.748L303.041 377.758ZM285.094 377.625L153.441 429.998C153.714 430.899 153.906 431.839 153.906 432.826C153.906 434.918 153.241 436.853 152.118 438.459L280.618 543.479C282.318 541.841 284.604 540.823 287.13 540.666L292.752 382.843C289.416 382.404 286.609 380.414 285.094 377.617V377.625ZM461.832 441.898C461.423 443.442 460.653 444.836 459.603 445.995L536.736 535.464C538.388 534.359 540.377 533.701 542.526 533.701L542.519 533.693C545.654 533.693 548.437 535.111 550.313 537.289L627.504 485.575C626.694 484.142 626.196 482.527 626.196 480.78C626.196 480.334 626.277 479.91 626.333 479.479L461.832 441.898ZM19.5918 502.066C20.1451 503.296 20.4668 504.651 20.4668 506.085C20.4668 506.861 20.354 507.605 20.1855 508.334L96.4131 533.498C98.025 530.035 101.578 527.607 105.724 527.606C106.574 527.606 107.384 527.74 108.17 527.928L139.335 441.852C137.715 441.107 136.311 439.971 135.293 438.545L135.285 438.537L19.5918 502.066ZM835.76 438.271L835.768 438.278C836.321 439.508 836.634 440.856 836.634 442.282C836.634 443.379 836.401 444.421 836.064 445.416L992.217 513.348C993.275 511.546 994.855 510.096 996.788 509.219L952.318 384.37C951.549 384.55 950.755 384.676 949.929 384.676C946.464 384.676 943.4 382.968 941.548 380.383L835.76 438.271ZM958.75 379.662C957.691 381.425 956.119 382.85 954.211 383.72L954.22 383.728L998.688 508.576C999.458 508.396 1000.25 508.271 1001.08 508.271C1003.73 508.271 1006.13 509.29 1007.95 510.911L1084.29 443.841C1083.03 442.18 1082.27 440.151 1082.27 437.934C1082.27 436.806 1082.5 435.74 1082.86 434.729L958.75 379.662ZM645.107 475.508C645.556 476.221 645.9 476.996 646.165 477.811L816.264 443.324V443.316C816.224 442.964 816.151 442.627 816.151 442.267C816.151 438.796 817.981 435.74 820.731 433.946L790.048 377.547C788.853 378.033 787.537 378.307 786.158 378.307C783.215 378.307 780.584 377.077 778.716 375.134L645.107 475.508ZM498.201 356.158C496.397 357.717 494.055 358.689 491.465 358.689C490.382 358.689 489.364 358.485 488.386 358.18L456.587 430.562C459.891 432.222 462.185 435.553 462.185 439.431C462.185 439.611 462.137 439.783 462.129 439.963L626.79 477.584C627.151 476.55 627.672 475.594 628.338 474.748L628.346 474.74L498.201 356.158ZM501.529 350.346C501.249 351.983 500.559 353.463 499.564 354.732L629.701 473.314C631.506 471.755 633.847 470.783 636.438 470.783C639.381 470.783 642.011 472.013 643.88 473.956L777.488 373.582C776.566 372.133 776.005 370.44 775.949 368.615L501.538 350.338L501.529 350.346ZM143.674 442.822H143.665L143.668 442.821C143.67 442.821 143.672 442.822 143.674 442.822ZM796.255 369.688C795.838 372.576 794.205 375.079 791.828 376.631V376.63L791.82 376.638C791.823 376.636 791.825 376.633 791.828 376.631L822.512 433.029C823.706 432.544 825.021 432.27 826.4 432.27C829.865 432.27 832.929 433.977 834.781 436.562L940.562 378.675C940.088 377.617 939.824 376.465 939.752 375.259L796.255 369.688ZM304.316 372.713C304.316 372.799 304.341 372.886 304.341 372.979C304.341 374.021 304.132 375.008 303.827 375.956L443.379 434.001C445.207 431.259 448.367 429.426 451.96 429.426C452.922 429.426 453.844 429.606 454.727 429.849V429.856L486.549 357.412C484.039 356.049 482.162 353.722 481.505 350.909L304.316 372.713ZM959.833 372.282C960.025 373.05 960.162 373.849 960.162 374.671C960.162 375.799 959.929 376.865 959.576 377.876L1083.68 432.943L1083.67 432.936C1085.45 429.966 1088.7 427.938 1092.47 427.93L1101.93 331.276C1098.7 330.665 1096.03 328.542 1094.66 325.706L959.833 372.282ZM795.942 365.513C796.151 366.218 796.287 366.955 796.335 367.723L939.832 373.292C940.53 368.435 944.764 364.667 949.929 364.667C950.281 364.667 950.618 364.737 950.963 364.769L962.961 307.021C960.338 306.222 958.189 304.452 956.93 302.117L795.942 365.513ZM342.899 263.611C341.039 266.079 338.064 267.701 334.688 267.701C333.869 267.701 333.091 267.576 332.329 267.403V267.411L298.358 363.915C301.213 365.2 303.355 367.714 304.068 370.77L481.256 348.967C481.248 348.881 481.224 348.794 481.224 348.7C481.224 347.18 481.6 345.754 482.218 344.47L342.899 263.611ZM975.769 300.214C974.557 304.413 970.643 307.515 965.96 307.515C965.607 307.515 965.271 307.444 964.926 307.413L952.928 365.16C955.694 365.998 957.957 367.918 959.176 370.44L1094 323.857L1094.01 323.85C1093.82 323.082 1093.68 322.29 1093.68 321.468C1093.68 321.209 1093.74 320.959 1093.76 320.7L975.769 300.214ZM501.481 346.624C501.602 347.196 501.658 347.784 501.674 348.387L776.085 366.665C776.855 362.215 780.625 358.783 785.292 358.399L786.599 267.184C782.878 266.768 779.751 264.457 778.331 261.222L501.481 346.624ZM797.401 260.478C796.118 264.167 792.718 266.862 788.604 267.207L787.297 358.423C790.737 358.807 793.64 360.836 795.18 363.703L956.168 300.308L956.176 300.315C955.911 299.422 955.719 298.49 955.719 297.519C955.719 297.08 955.792 296.664 955.848 296.241L797.401 260.478ZM660.665 217.373C659.069 220.875 655.492 223.327 651.322 223.327C648.604 223.327 646.141 222.269 644.305 220.569L499.806 342.919C500.223 343.491 500.591 344.102 500.88 344.752L777.729 259.35C777.585 258.684 777.505 257.994 777.505 257.289C777.505 256.537 777.609 255.808 777.77 255.104H777.762L660.665 217.373ZM501.201 72.5703L342.122 250.864C343.854 252.658 344.929 255.056 344.929 257.704C344.929 259.216 344.551 260.634 343.934 261.927L483.253 342.785C485.033 340.427 487.832 338.876 491.016 338.735L505.58 74.2852C503.96 74.0423 502.476 73.4476 501.201 72.5625V72.5703ZM513.358 72.3037C511.747 73.5335 509.757 74.2937 507.576 74.3877H507.568L493.005 338.837C495.114 339.158 497.007 340.074 498.482 341.445L642.981 219.097C641.795 217.459 641.081 215.477 641.081 213.33C641.081 210.823 642.059 208.559 643.623 206.804L513.358 72.3037ZM975.352 293.562C975.889 294.776 976.193 296.108 976.193 297.519C976.193 297.777 976.129 298.028 976.113 298.286L1094.1 318.773C1094.89 316.055 1096.8 313.822 1099.34 312.568L1099.35 312.584L1074.69 249.791C1073.83 250.026 1072.93 250.19 1071.99 250.19C1068.5 250.19 1065.42 248.467 1063.57 245.858L975.352 293.562ZM794.306 249.682C796.535 251.515 797.979 254.226 797.979 257.289C797.978 257.728 797.907 258.143 797.851 258.565L956.297 294.33L956.288 294.322C956.906 292.56 957.996 291.024 959.432 289.856L868.296 158.411C866.844 159.187 865.241 159.665 863.444 159.665C861.648 159.665 859.987 159.171 858.52 158.38L794.306 249.682ZM990.492 19.6719C989.779 19.852 989.041 19.9618 988.271 19.9775V19.9619L967.709 287.671C970.46 288.141 972.834 289.669 974.365 291.831L1062.58 244.127C1062.04 242.913 1061.73 241.581 1061.73 240.171C1061.73 236.183 1064.15 232.759 1067.62 231.153L990.492 19.6719ZM982.112 18.1367L870.878 142.836C872.602 144.63 873.686 147.028 873.686 149.676C873.686 152.755 872.217 155.489 869.964 157.322L961.092 288.768C962.479 288.031 964.036 287.576 965.712 287.537L986.274 19.8291C984.743 19.5628 983.331 18.9749 982.112 18.1289V18.1367ZM661.354 211.34C661.491 211.982 661.563 212.649 661.563 213.33C661.563 214.074 661.459 214.803 661.299 215.508L778.395 253.246C779.982 249.744 783.567 247.284 787.737 247.284C789.526 247.284 791.187 247.778 792.654 248.569L856.876 157.268C855.649 156.257 854.638 154.995 854.005 153.522L661.354 211.34ZM516.749 67.7471C516.308 68.9365 515.659 70.0169 514.826 70.9561L645.091 205.457C646.823 204.141 648.972 203.325 651.33 203.325C655.573 203.325 659.222 205.864 660.77 209.468L853.419 151.65C853.283 151.008 853.211 150.35 853.211 149.668C853.211 149.19 853.291 148.728 853.355 148.266L516.749 67.7471ZM517.345 64.2646C517.346 64.3243 517.36 64.377 517.36 64.4297C517.36 64.9153 517.289 65.3777 517.217 65.8398L853.836 146.354C855.239 142.469 859.001 139.663 863.452 139.663C865.666 139.663 867.703 140.377 869.379 141.544L980.604 16.8438C979.353 15.5433 978.439 13.9219 978.038 12.1201L517.345 64.2646ZM516.749 67.7471C516.749 67.746 516.751 67.7452 516.751 67.7441H516.735L516.749 67.7471Z" fill="url(#paint0_linear)"/>
<defs>
<linearGradient id="paint0_linear" x1="161.017" y1="337.734" x2="1119.18" y2="337.734" gradientUnits="userSpaceOnUse">
  <stop stop-color="#B8DF88"/>
  <stop offset="1" stop-color="#56D3F9"/>
</linearGradient>
</defs>
</svg>
