<svg width="860" height="168" viewBox="0 0 860 168" fill="none" xmlns="http://www.w3.org/2000/svg">
<g clip-path="url(#clip0_662_6992)">
<path d="M398.384 -1.66797V-1.38379H860.562V106.558L792.396 100.585L671.581 88.208L562.55 110.411L480.214 83.8057L398.384 97.8799V97.9707L398.029 97.9414L397.871 97.9688V97.9277L305.88 90.3447L185.064 77.9678L76.0332 100.172L-6.30273 73.5654L-40.5859 82.2129V-1.66797H398.384Z" fill="#081E3F"/>
<path d="M348.202 4.73828C350.287 4.73828 351.97 6.43105 351.971 8.51465C351.971 8.56191 351.969 8.60941 351.967 8.65625L423.965 17.8066C424.482 16.3307 425.889 15.2773 427.53 15.2773C429.572 15.2776 431.222 16.8971 431.302 18.9033L527.396 41.7227C527.83 40.1111 529.305 38.9326 531.042 38.9326C532.956 38.9328 534.525 40.3551 534.78 42.1855L615.478 36.8027C615.523 34.7564 617.195 33.1115 619.252 33.1113C621.328 33.1114 623.011 34.7858 623.027 36.8574L740.206 45.6279C740.463 43.7977 742.036 42.3898 743.938 42.3896C745.565 42.3899 746.95 43.4215 747.478 44.8662L830.992 19.3428C830.963 19.153 830.948 18.9586 830.948 18.7607C830.948 16.6771 832.631 14.9846 834.716 14.9844C836.801 14.9846 838.484 16.677 838.484 18.7607C838.484 18.8072 838.482 18.8534 838.48 18.8994L913.447 28.4277L913.998 28.498L913.809 29.0195L885.107 107.97L885.275 107.985L885.039 108.158L884.709 109.066L884.445 108.594L884.327 108.682L851.451 132.845C851.767 133.398 851.949 134.037 851.949 134.72C851.949 136.804 850.266 138.496 848.181 138.496C846.637 138.496 845.314 137.567 844.731 136.239L774.684 161.772C774.729 162.008 774.754 162.251 774.754 162.5C774.754 164.589 773.066 166.276 770.978 166.276C768.889 166.276 767.201 164.589 767.201 162.5C767.201 162.453 767.202 162.405 767.204 162.358L655.229 139.693C654.746 141.22 653.323 142.328 651.636 142.328C649.755 142.328 648.202 140.95 647.916 139.15L484.557 145.827C484.561 145.904 484.565 145.982 484.565 146.06C484.565 148.145 482.873 149.828 480.789 149.828C478.71 149.828 477.013 148.158 477.013 146.06C477.013 145.772 477.046 145.492 477.106 145.223L400.403 100.676C399.728 101.304 398.823 101.689 397.827 101.689C396.728 101.689 395.736 101.223 395.045 100.473L364.938 122.601C365.254 123.153 365.436 123.792 365.437 124.475C365.436 126.558 363.753 128.251 361.668 128.251C360.125 128.251 358.802 127.324 358.219 125.997L288.17 151.53C288.216 151.766 288.241 152.009 288.241 152.259C288.241 154.347 286.553 156.035 284.465 156.035C282.376 156.035 280.689 154.347 280.688 152.259C280.688 152.212 280.69 152.165 280.691 152.119L168.713 129.453C168.229 130.977 166.808 132.083 165.123 132.083C163.345 132.083 161.86 130.853 161.461 129.198L-7.44434 152.239C-7.45477 154.319 -9.1378 155.996 -11.2197 155.996C-12.7046 155.996 -13.9873 155.143 -14.6045 153.899L-87.166 184.939L-87.2793 184.677L-87.5039 184.992L-88.3047 184.673L-75.0986 91.0117L-74.668 91.0723L-74.7832 90.6445L-11.0986 73.5156C-11.1176 73.3623 -11.1279 73.2063 -11.1279 73.0479C-11.1278 72.0092 -10.7081 71.0682 -10.0283 70.3867L-59.6309 8.4248L-59.293 8.15527L-59.292 8.14746L-59.1895 7.71582L40.8818 31.4795C41.316 29.867 42.7907 28.6866 44.5283 28.6865C46.4444 28.6866 48.016 30.1123 48.2686 31.9453L128.965 26.5615C129.008 24.5132 130.681 22.8662 132.739 22.8662C134.815 22.8663 136.499 24.5417 136.515 26.6143L253.693 35.3848C253.95 33.5535 255.522 32.1447 257.424 32.1445C259.052 32.1445 260.439 33.1774 260.966 34.624L344.479 9.10059C344.45 8.90977 344.435 8.71374 344.435 8.51465C344.435 6.43122 346.117 4.73854 348.202 4.73828ZM-86.6035 183.732L-14.9023 153.062C-14.9637 152.791 -14.9961 152.509 -14.9961 152.22C-14.996 150.284 -13.5413 148.7 -11.6807 148.473L-7.64551 76.8037C-8.37263 76.7492 -9.04207 76.4899 -9.5957 76.0811L-86.6035 183.732ZM-74.2598 91.4238L-87.1719 183.005L-10.2471 75.4678C-10.517 75.146 -10.7347 74.7789 -10.8857 74.3789L-74.2598 91.4238ZM675.355 90.8662C674.667 91.6257 673.673 92.1034 672.566 92.1035C672.002 92.1035 671.467 91.9781 670.987 91.7559L653.347 135.188C654.569 135.812 655.404 137.084 655.404 138.552C655.404 138.642 655.4 138.732 655.394 138.82L767.341 161.481C767.411 161.23 767.507 160.988 767.625 160.761L675.355 90.8662ZM796.415 102.539C795.723 103.407 794.658 103.964 793.462 103.964C792.954 103.964 792.47 103.863 792.027 103.681L772.523 159.054C773.358 159.428 774.03 160.096 774.411 160.927L844.473 135.389C844.434 135.172 844.413 134.948 844.413 134.72C844.413 134.204 844.516 133.713 844.703 133.265L796.415 102.539ZM676.221 89.2441C676.142 89.561 676.024 89.8621 675.871 90.1416L768.125 160.026C768.819 159.228 769.842 158.724 770.978 158.724C771.217 158.724 771.45 158.747 771.677 158.789L791.241 103.241C790.371 102.607 789.783 101.612 789.697 100.475L676.221 89.2441ZM79.1758 101.44C78.5747 102.727 77.2703 103.618 75.7539 103.618C74.4557 103.618 73.3123 102.966 72.6328 101.971L-7.78516 150.649C-7.68233 150.874 -7.60131 151.111 -7.54395 151.357L161.355 128.316C161.355 128.313 161.355 128.31 161.355 128.307C161.355 128.116 161.369 127.928 161.396 127.745L79.1758 101.44ZM188.841 80.626C188.152 81.3847 187.159 81.8613 186.053 81.8613C185.488 81.8612 184.954 81.7361 184.474 81.5137L166.834 124.942C168.056 125.567 168.891 126.839 168.892 128.307C168.892 128.399 168.886 128.49 168.88 128.581L280.827 151.241C280.897 150.99 280.993 150.749 281.111 150.521L188.841 80.626ZM309.896 92.2998C309.204 93.1639 308.141 93.7187 306.948 93.7188C306.439 93.7187 305.954 93.6172 305.511 93.4346L286.005 148.811C286.842 149.184 287.516 149.852 287.897 150.685L357.96 125.146C357.921 124.928 357.9 124.704 357.9 124.475C357.9 123.962 358.002 123.472 358.187 123.026L309.896 92.2998ZM-3.95703 74.665C-4.4792 75.7618 -5.51506 76.565 -6.75391 76.7656L-10.791 148.468C-9.75874 148.584 -8.85394 149.115 -8.24609 149.891L72.2227 101.184C72.0645 100.767 71.9776 100.315 71.9775 99.8418C71.9775 99.7266 71.9831 99.6125 71.9932 99.5L-3.95703 74.665ZM189.709 79.002C189.63 79.32 189.51 79.6218 189.356 79.9023L281.61 149.787C282.304 148.987 283.329 148.482 284.465 148.482C284.702 148.482 284.933 148.505 285.158 148.547L304.725 92.9932C303.857 92.3597 303.27 91.366 303.184 90.2314L189.709 79.002ZM480.919 145.977L480.574 146.127C480.601 146.213 480.679 146.277 480.789 146.277C480.921 146.277 481.015 146.174 481.015 146.06C481.015 146.029 481.008 145.999 480.996 145.973L480.919 145.977ZM565.689 111.68C565.089 112.968 563.784 113.859 562.267 113.859C560.825 113.859 559.575 113.055 558.938 111.87L484.237 144.524C484.298 144.661 484.352 144.801 484.396 144.945L647.88 138.264C647.887 138.17 647.897 138.076 647.911 137.984L565.689 111.68ZM401.601 97.8428C401.601 97.8688 401.604 97.8948 401.604 97.9209C401.604 98.6847 401.375 99.3933 400.984 99.9863L477.41 144.372C478.032 143.132 479.316 142.283 480.789 142.283C482.01 142.283 483.091 142.863 483.78 143.758L558.614 111.046C558.534 110.739 558.49 110.416 558.49 110.083C558.49 109.967 558.496 109.852 558.506 109.738L482.558 84.9043C481.953 86.1772 480.655 87.0576 479.152 87.0576C477.529 87.0574 476.145 86.0305 475.615 84.5908L401.601 97.8428ZM566.041 110.006C566.042 110.031 566.043 110.057 566.043 110.083C566.043 110.341 566.017 110.593 565.968 110.837L648.146 137.128C648.706 135.749 650.055 134.776 651.636 134.775C651.938 134.775 652.233 134.812 652.515 134.879L670.222 91.2822C669.649 90.8255 669.213 90.206 668.982 89.4932L566.041 110.006ZM797.126 101.1C797.067 101.338 796.986 101.566 796.884 101.784L845.14 132.49C845.824 131.553 846.93 130.944 848.181 130.943C849.264 130.943 850.237 131.401 850.924 132.132L882.854 108.664L797.126 101.1ZM79.5283 99.7656C79.5288 99.7909 79.5303 99.8164 79.5303 99.8418C79.5303 100.101 79.5026 100.353 79.4531 100.598L161.63 126.888C162.189 125.506 163.54 124.53 165.123 124.53C165.426 124.53 165.72 124.567 166.002 124.635L183.708 81.041C183.136 80.5847 182.7 79.9658 182.47 79.2539L79.5283 99.7656ZM310.611 90.8604C310.552 91.0991 310.469 91.3285 310.366 91.5469L358.622 122.251C359.307 121.31 360.415 120.698 361.668 120.698C362.751 120.698 363.725 121.156 364.412 121.887L394.525 99.7549C394.27 99.2962 394.107 98.7778 394.063 98.2236L310.611 90.8604ZM621.745 39.7227C621.08 40.3081 620.208 40.664 619.252 40.6641C618.37 40.664 617.561 40.3608 616.918 39.8545L564.705 107.198C565.289 107.692 565.72 108.359 565.92 109.122L668.811 88.6211C668.803 88.5241 668.799 88.4261 668.799 88.3271C668.799 87.4546 669.094 86.6505 669.59 86.0107L621.745 39.7227ZM482.223 81.1055C482.662 81.7215 482.921 82.4748 482.921 83.2891C482.921 83.5545 482.893 83.8135 482.841 84.0635L558.691 108.864C558.969 108.049 559.518 107.36 560.229 106.903L532.438 46.209C532.006 46.3808 531.535 46.4775 531.042 46.4775C529.886 46.4775 528.848 45.96 528.154 45.1406L482.223 81.1055ZM795.311 96.8945C796.461 97.5417 797.238 98.7736 797.238 100.188C797.238 100.198 797.237 100.208 797.237 100.218L884.047 107.876L836.365 22.1562C835.867 22.3995 835.308 22.5371 834.716 22.5371C834.055 22.537 833.435 22.366 832.896 22.0674L795.311 96.8945ZM838.344 19.7783C838.134 20.5311 837.699 21.1894 837.113 21.6738L884.54 106.936L912.785 29.2393L838.344 19.7783ZM534.8 43.0742C534.692 44.1948 534.093 45.1693 533.222 45.7852L561.03 106.515C561.418 106.38 561.834 106.307 562.267 106.307C562.878 106.307 563.454 106.452 563.965 106.709L616.286 39.2236C615.937 38.7808 615.685 38.2584 615.562 37.6875L534.8 43.0742ZM793.669 100.164L793.553 100.393C793.632 100.357 793.687 100.279 793.688 100.188C793.688 100.17 793.685 100.154 793.682 100.138L793.669 100.164ZM675.896 86.5576C676.175 87.0856 676.335 87.6879 676.335 88.3271C676.335 88.3389 676.334 88.3506 676.334 88.3623L789.732 99.585C789.846 98.8737 790.16 98.2289 790.612 97.709L746.258 49.124C745.618 49.6253 744.812 49.9258 743.937 49.9258C742.632 49.9255 741.483 49.2623 740.807 48.2549L675.896 86.5576ZM135.229 29.4805C134.564 30.064 133.693 30.4189 132.739 30.4189C131.857 30.4189 131.046 30.1161 130.403 29.6094L78.1895 96.9551C78.7749 97.4494 79.2078 98.1182 79.4072 98.8828L182.298 78.3818C182.29 78.284 182.285 78.1847 182.285 78.085C182.285 77.2131 182.581 76.41 183.076 75.7705L135.229 29.4805ZM-4.29395 70.8594C-3.85271 71.4763 -3.59188 72.2315 -3.5918 73.0479C-3.59181 73.3138 -3.62141 73.5729 -3.67383 73.8232L72.1768 98.626C72.454 97.8104 73.0028 97.1222 73.7129 96.665L45.918 35.9668C45.4876 36.1368 45.0191 36.2314 44.5283 36.2314C43.3717 36.2314 42.3334 35.7146 41.6396 34.8945L-4.29395 70.8594ZM308.795 86.6475C309.947 87.2942 310.725 88.5274 310.725 89.9424C310.725 89.9544 310.724 89.9665 310.724 89.9785L394.096 97.334C394.272 96.2052 394.948 95.2452 395.887 94.6816L349.848 11.9131C349.351 12.155 348.793 12.291 348.202 12.291C347.54 12.2909 346.92 12.1198 346.38 11.8203L308.795 86.6475ZM747.681 45.7334C747.696 45.8725 747.706 46.0139 747.706 46.1572C747.706 47.0421 747.399 47.855 746.889 48.498L791.27 97.1123C791.888 96.6709 792.644 96.4111 793.462 96.4111C793.818 96.4112 794.162 96.4617 794.488 96.5537L832.167 21.542C831.764 21.1709 831.442 20.7132 831.23 20.1982L747.681 45.7334ZM429.677 22.1533C429.067 22.5747 428.327 22.8223 427.529 22.8223C426.964 22.8222 426.427 22.6979 425.944 22.4756L399.708 94.6465C400.573 95.1451 401.221 95.9763 401.479 96.9619L475.41 83.7236C475.394 83.581 475.385 83.436 475.385 83.2891C475.385 82.2495 475.806 81.3076 476.486 80.626L429.677 22.1533ZM48.2861 32.834C48.1767 33.9551 47.5757 34.9293 46.7021 35.5439L74.5117 96.2754C74.9012 96.1396 75.3194 96.0654 75.7539 96.0654C76.3637 96.0655 76.9388 96.2101 77.4482 96.4658L129.771 28.9766C129.424 28.5351 129.172 28.0149 129.049 27.4463L48.2861 32.834ZM351.83 9.53418C351.62 10.2883 351.183 10.9471 350.596 11.4316L396.7 94.3154C397.056 94.2039 397.435 94.1446 397.827 94.1445C398.197 94.1445 398.554 94.198 398.892 94.2969L425.173 22.001C424.309 21.3133 423.754 20.2535 423.754 19.0537C423.754 18.9268 423.76 18.8014 423.772 18.6777L351.83 9.53418ZM307.15 89.9238L307.036 90.1494C307.117 90.1152 307.174 90.0356 307.174 89.9424C307.174 89.9239 307.171 89.9059 307.167 89.8887L307.15 89.9238ZM189.38 76.3115C189.661 76.8405 189.821 77.444 189.821 78.085C189.821 78.0965 189.82 78.1086 189.82 78.1201L303.22 89.3428C303.333 88.6329 303.644 87.9893 304.095 87.4697L259.739 38.8838C259.1 39.3824 258.297 39.6807 257.424 39.6807C256.119 39.6805 254.969 39.0162 254.293 38.0078L189.38 76.3115ZM672.623 88.4902L672.524 88.5479C672.538 88.5506 672.552 88.5527 672.566 88.5527C672.657 88.5526 672.739 88.4927 672.77 88.4023L672.623 88.4902ZM261.168 35.4912C261.183 35.6294 261.192 35.7699 261.192 35.9121C261.192 36.7999 260.884 37.6148 260.37 38.2588L304.75 86.8721C305.369 86.4278 306.128 86.1661 306.948 86.166C307.303 86.166 307.647 86.2151 307.973 86.3066L345.652 11.2949C345.251 10.9249 344.93 10.469 344.719 9.95605L261.168 35.4912ZM622.931 37.7412C622.819 38.2239 622.615 38.6704 622.338 39.0625L670.213 85.377C670.857 84.86 671.675 84.5509 672.566 84.5508C673.692 84.5509 674.701 85.0448 675.391 85.8271L740.402 47.4629C740.292 47.1637 740.218 46.8469 740.187 46.5176L622.931 37.7412ZM431.231 19.7988C431.097 20.4697 430.784 21.0752 430.345 21.5654L477.184 80.0762C477.756 79.7243 478.431 79.5216 479.152 79.5215C480.098 79.5215 480.962 79.8707 481.624 80.4463L527.664 44.3984C527.41 43.8916 527.266 43.3186 527.266 42.709C527.266 42.6742 527.267 42.6391 527.268 42.6045L431.231 19.7988ZM186.104 78.2461L186.005 78.3047C186.02 78.3084 186.036 78.3105 186.053 78.3105C186.146 78.3105 186.23 78.2481 186.259 78.1533L186.104 78.2461ZM136.416 27.498C136.304 27.9811 136.1 28.428 135.822 28.8203L183.698 75.1367C184.343 74.6191 185.161 74.3087 186.053 74.3086C187.177 74.3086 188.184 74.8018 188.874 75.582L253.888 37.2168C253.778 36.9184 253.705 36.6019 253.674 36.2734L136.416 27.498ZM-9.33203 69.8359C-8.7586 69.4832 -8.08305 69.2803 -7.36035 69.2803C-6.41663 69.2803 -5.5547 69.6279 -4.89355 70.2012L41.1494 34.1514C40.8956 33.6449 40.752 33.0718 40.752 32.4629C40.752 32.4289 40.753 32.3951 40.7539 32.3613L-58.1279 8.88086L-9.33203 69.8359ZM744.034 46.3506C744.046 46.3449 744.056 46.3386 744.066 46.3311L744.034 46.3506ZM257.5 36.1143C257.524 36.1052 257.545 36.0925 257.564 36.0762L257.5 36.1143ZM834.716 18.5352C834.699 18.5352 834.683 18.5373 834.667 18.541L834.514 18.8447C834.546 18.9305 834.628 18.9862 834.716 18.9863C834.83 18.9861 834.933 18.8926 834.934 18.7607C834.934 18.6287 834.83 18.5354 834.716 18.5352ZM348.202 8.28906C348.184 8.2891 348.167 8.29256 348.15 8.29688L348 8.59668C348.032 8.68389 348.113 8.74003 348.202 8.74023C348.317 8.74023 348.42 8.64683 348.42 8.51465C348.42 8.38268 348.316 8.28906 348.202 8.28906Z" fill="url(#paint0_linear_662_6992)"/>
</g>
<defs>
<linearGradient id="paint0_linear_662_6992" x1="-17.9613" y1="94.8652" x2="858.775" y2="94.8652" gradientUnits="userSpaceOnUse">
<stop stop-color="#78D1F5"/>
<stop offset="1" stop-color="#B8DF88"/>
</linearGradient>
<clipPath id="clip0_662_6992">
<rect width="860" height="168" fill="white"/>
</clipPath>
</defs>
</svg>
