<svg width="42" height="40" viewBox="0 0 42 40" fill="none" xmlns="http://www.w3.org/2000/svg">
<path d="M20.9375 2.5C14.6094 2.5 8.90625 5.85938 5.78125 11.25C2.57812 16.7188 2.57812 23.3594 5.78125 28.75C8.90625 34.2188 14.6094 37.5 20.9375 37.5C27.1875 37.5 32.8906 34.2188 36.0156 28.75C39.2188 23.3594 39.2188 16.7188 36.0156 11.25C32.8906 5.85938 27.1875 2.5 20.9375 2.5ZM20.9375 40C13.75 40 7.1875 36.25 3.59375 30C0 23.8281 0 16.25 3.59375 10C7.1875 3.82812 13.75 0 20.9375 0C28.0469 0 34.6094 3.82812 38.2031 10C41.7969 16.25 41.7969 23.8281 38.2031 30C34.6094 36.25 28.0469 40 20.9375 40ZM22.1875 16.3281C22.5781 16.4062 22.8906 16.7188 23.0469 17.1094L24.0625 19.6094C24.2188 20.0781 24.4531 20.4688 24.7656 20.8594L26.1719 22.6562C26.7969 23.5156 27.1875 24.4531 27.1875 25.4688C27.1875 26.4844 26.7969 27.5 26.1719 28.2812L25.2344 29.4531C24.375 30.625 22.9688 31.25 21.5625 31.25C20.7031 31.25 19.7656 31.0156 19.0625 30.5469L16.9531 29.1406L13.3594 27.9688L11.7969 28.4375C9.76562 29.0625 7.57812 28.2031 6.5625 26.3281L6.32812 25.8594C5.15625 23.5938 6.09375 20.9375 8.28125 19.8438L11.0938 18.5156L11.4844 17.9688C12.2656 16.875 13.5156 16.25 14.8438 16.25C16.1719 16.25 17.4219 16.875 18.2812 17.9688L18.5938 18.3594C18.75 18.4375 18.9844 18.3594 19.1406 18.2812L21.0938 16.5625C21.4062 16.3281 21.7969 16.25 22.1875 16.3281ZM14.8438 18.75C14.2969 18.75 13.75 19.0625 13.4375 19.4531L13.0469 20C12.8125 20.3906 12.5 20.625 12.1094 20.7812L9.375 22.1094C8.35938 22.5781 8.04688 23.75 8.51562 24.6875L8.75 25.1562C9.21875 25.9375 10.1562 26.3281 11.0156 26.0938L12.9688 25.3906C13.2031 25.3125 13.5156 25.3125 13.75 25.4688L17.8906 26.875C17.9688 26.875 18.0469 26.9531 18.125 26.9531L20.3906 28.4375C20.7812 28.6719 21.1719 28.75 21.5625 28.75C22.2656 28.75 22.8906 28.4375 23.2812 27.9688L24.2188 26.7188C24.5312 26.4062 24.6875 25.9375 24.6875 25.4688C24.6875 25 24.5312 24.6094 24.2188 24.2188L22.8125 22.4219C22.3438 21.875 22.0312 21.25 21.7188 20.5469L21.4062 19.6094L20.7812 20.1562C20 20.7812 19.0625 21.0156 18.125 20.8594H18.0469C17.5 20.7031 16.9531 20.3906 16.5625 19.9219L16.25 19.4531C15.9375 19.0625 15.3906 18.75 14.8438 18.75ZM22.8906 9.84375L24.8438 12.1094C25.8594 13.2031 25.1562 15 23.6719 15.1562L20.7031 15.5469C19.8438 15.625 18.9844 15.4688 18.2812 15L15.1562 13.0469C13.8281 12.1875 14.0625 10.1562 15.625 9.6875L18.9844 8.67188C20.3906 8.28125 21.9531 8.67188 22.8906 9.84375ZM19.6875 11.0938L17.6562 11.7188L19.5312 12.8906C19.8438 13.0469 20.0781 13.125 20.3906 13.0469L22.1875 12.8125L21.0156 11.4844C20.7031 11.0938 20.1562 10.9375 19.6875 11.0938ZM20.3125 33.75C20.3125 33.125 20.8594 32.5 21.5625 32.5H22.8125C23.4375 32.5 24.0625 33.125 24.0625 33.75C24.0625 34.4531 23.4375 35 22.8125 35H21.5625C20.8594 35 20.3125 34.4531 20.3125 33.75ZM34.6094 23.9844L35.2344 25.8594C35.4688 26.5625 35.0781 27.2656 34.4531 27.5C33.75 27.6562 33.0469 27.3438 32.8125 26.6406L32.1875 24.7656C32.0312 24.1406 32.3438 23.4375 33.0469 23.2031C33.6719 22.9688 34.375 23.3594 34.6094 23.9844ZM33.0469 30.3125L30.5469 32.8125C30.0781 33.2812 29.2188 33.2812 28.75 32.8125C28.2812 32.3438 28.2812 31.4844 28.75 31.0156L31.25 28.5156C31.7188 28.0469 32.5781 28.0469 33.0469 28.5156C33.5156 28.9844 33.5156 29.8438 33.0469 30.3125Z" fill="#081E3F"/>
</svg>
