<svg width="22" height="25" viewBox="0 0 22 25" fill="none" xmlns="http://www.w3.org/2000/svg">
<path d="M10.1562 0.78125C10.1562 0.390625 10.498 0 10.9375 0C11.3281 0 11.7188 0.390625 11.7188 0.78125V1.61133C15.625 2.00195 18.75 5.32227 18.75 9.375V10.8398C18.75 12.9395 19.5801 14.9902 21.0938 16.5039L21.2402 16.6504C21.6309 17.041 21.875 17.627 21.875 18.1641C21.875 19.3848 20.8984 20.3613 19.6777 20.3613L2.14844 20.3125C0.927734 20.3125 0 19.3848 0 18.1641C0 17.5781 0.195312 17.041 0.634766 16.6504L0.732422 16.5039C2.24609 14.9902 3.125 12.9395 3.125 10.8398V9.375C3.125 5.32227 6.20117 2.00195 10.1562 1.61133V0.78125ZM10.9375 3.125C7.4707 3.125 4.6875 5.95703 4.6875 9.375V10.8398C4.6875 13.3789 3.66211 15.8203 1.85547 17.627L1.70898 17.7246C1.61133 17.8711 1.5625 18.0176 1.5625 18.1641C1.5625 18.5059 1.80664 18.75 2.14844 18.75H19.6777C20.0195 18.75 20.3125 18.5059 20.3125 18.1641C20.3125 18.0176 20.2148 17.8711 20.1172 17.7246L19.9707 17.627C18.1641 15.8203 17.1387 13.3789 17.1387 10.791V9.375C17.1387 5.95703 14.3555 3.125 10.8887 3.125H10.9375ZM9.42383 22.4121C9.66797 23.0469 10.2539 23.4375 10.9375 23.4375C11.5723 23.4375 12.1582 23.0469 12.4023 22.4121C12.5488 22.0215 12.9883 21.7773 13.3789 21.9238C13.7695 22.0703 14.0137 22.5098 13.8672 22.9492C13.4277 24.1699 12.2559 25 10.9375 25C9.57031 25 8.39844 24.1699 7.95898 22.9492C7.8125 22.5098 8.05664 22.0703 8.44727 21.9238C8.83789 21.7773 9.27734 22.0215 9.42383 22.4121Z" fill="#081E3F"/>
</svg>
