<svg width="34" height="30" viewBox="0 0 34 30" fill="none" xmlns="http://www.w3.org/2000/svg">
<path d="M1.05 0C1.575 0 2.1 0.525 2.1 1.05V24.15C2.1 25.9219 3.47813 27.3 5.25 27.3H32.55C33.075 27.3 33.6 27.825 33.6 28.35C33.6 28.9406 33.075 29.4 32.55 29.4H5.25C2.29688 29.4 0 27.1031 0 24.15V1.05C0 0.525 0.459375 0 1.05 0ZM9.45 14.7C9.975 14.7 10.5 15.225 10.5 15.75V22.05C10.5 22.6406 9.975 23.1 9.45 23.1C8.85938 23.1 8.4 22.6406 8.4 22.05V15.75C8.4 15.225 8.85938 14.7 9.45 14.7ZM16.8 7.35V22.05C16.8 22.6406 16.275 23.1 15.75 23.1C15.1594 23.1 14.7 22.6406 14.7 22.05V7.35C14.7 6.825 15.1594 6.3 15.75 6.3C16.275 6.3 16.8 6.825 16.8 7.35ZM22.05 10.5C22.575 10.5 23.1 11.025 23.1 11.55V22.05C23.1 22.6406 22.575 23.1 22.05 23.1C21.4594 23.1 21 22.6406 21 22.05V11.55C21 11.025 21.4594 10.5 22.05 10.5ZM29.4 5.25V22.05C29.4 22.6406 28.875 23.1 28.35 23.1C27.7594 23.1 27.3 22.6406 27.3 22.05V5.25C27.3 4.725 27.7594 4.2 28.35 4.2C28.875 4.2 29.4 4.725 29.4 5.25Z" fill="#081E3F"/>
</svg>
