<svg width="50" height="40" viewBox="0 0 50 40" fill="none" xmlns="http://www.w3.org/2000/svg">
<path d="M9.6875 2.5C8.51562 2.5 7.57812 3.28125 7.26562 4.375L6.01562 8.75C6.09375 8.75 6.17188 8.75 6.25 8.75H23.75C23.75 8.75 23.8281 8.75 23.9062 8.75L22.6562 4.375C22.3438 3.28125 21.4062 2.5 20.2344 2.5H9.6875ZM4.84375 3.67188C5.46875 1.48438 7.42188 0 9.6875 0H20.2344C22.5 0 24.4531 1.48438 25.0781 3.67188L26.7969 9.60938C27.5781 10 28.2031 10.625 28.75 11.3281C27.8125 11.4844 26.9531 11.7188 26.1719 12.1875C25.4688 11.6406 24.6094 11.25 23.75 11.25H6.25C4.14062 11.25 2.5 12.9688 2.5 15V18.75V20H21.4844L21.0156 21.7188C20.7031 21.9531 20.3906 22.2656 20.0781 22.5H2.5V25C2.5 25.7031 1.875 26.25 1.25 26.25C0.546875 26.25 0 25.7031 0 25V22.5V20V18.75V15C0 12.6562 1.25 10.625 3.20312 9.60938L4.84375 3.67188ZM6.25 17.5C5.15625 17.5 4.375 16.7188 4.375 15.625C4.375 14.6094 5.15625 13.75 6.25 13.75C7.26562 13.75 8.125 14.6094 8.125 15.625C8.125 16.7188 7.26562 17.5 6.25 17.5ZM29.6875 16.25C28.5156 16.25 27.5781 17.0312 27.2656 18.125L26.0156 22.5C26.0938 22.5 26.1719 22.5 26.25 22.5H43.75C43.75 22.5 43.8281 22.5 43.9062 22.5L42.6562 18.125C42.3438 17.0312 41.4062 16.25 40.2344 16.25H29.6875ZM24.8438 17.4219C25.4688 15.2344 27.4219 13.75 29.6875 13.75H40.2344C42.5 13.75 44.4531 15.2344 45.0781 17.4219L46.7969 23.3594C48.6719 24.375 50 26.4062 50 28.75V32.5V33.75V36.25V38.75C50 39.4531 49.375 40 48.75 40C48.0469 40 47.5 39.4531 47.5 38.75V36.25H22.5V38.75C22.5 39.4531 21.875 40 21.25 40C20.5469 40 20 39.4531 20 38.75V36.25V33.75V32.5V28.75C20 26.4062 21.25 24.375 23.2031 23.3594L24.8438 17.4219ZM47.5 32.5V28.75C47.5 26.7188 45.7812 25 43.75 25H26.25C24.1406 25 22.5 26.7188 22.5 28.75V32.5V33.75H47.5V32.5ZM26.25 31.25C25.1562 31.25 24.375 30.4688 24.375 29.375C24.375 28.3594 25.1562 27.5 26.25 27.5C27.2656 27.5 28.125 28.3594 28.125 29.375C28.125 30.4688 27.2656 31.25 26.25 31.25ZM45.625 29.375C45.625 30.4688 44.7656 31.25 43.75 31.25C42.6562 31.25 41.875 30.4688 41.875 29.375C41.875 28.3594 42.6562 27.5 43.75 27.5C44.7656 27.5 45.625 28.3594 45.625 29.375Z" fill="#081E3F"/>
</svg>
