<svg width="50" height="40" viewBox="0 0 50 40" fill="none" xmlns="http://www.w3.org/2000/svg">
<path d="M14.7656 1.09375C15.4688 0.46875 16.4062 0 17.5 0C19.5312 0 21.1719 1.71875 22.1094 3.28125C22.8906 4.6875 23.4375 6.25 23.6719 7.73438C22.6562 7.96875 21.875 8.51562 21.25 9.21875V8.59375C21.25 7.57812 20.7812 5.9375 19.9219 4.60938C19.0625 3.20312 18.2031 2.5 17.5 2.5C17.1094 2.5 16.7969 2.65625 16.3281 3.04688C15.8594 3.35938 15.3906 3.90625 15 4.60938C14.2188 5.9375 13.75 7.57812 13.75 8.59375V14.8438C13.75 15.3125 13.4375 15.7031 13.0469 15.9375L3.125 21.6406C2.73438 21.875 2.5 22.2656 2.5 22.7344V27.1094L12.1094 24.375C12.5 24.2969 12.8906 24.375 13.2031 24.6094C13.5156 24.8438 13.75 25.1562 13.75 25.5469V30C13.75 30.3906 13.5156 30.7812 13.2031 31.0156L8.75 34.375V37.5L17.1094 35.0781C17.3438 35 17.5781 35 17.8125 35.0781L20.8594 35.9375C21.25 36.5625 21.7969 37.1094 22.5 37.4219V38.9844L17.5 37.5781L9.21875 39.9219C8.98438 40 8.75 40 8.59375 40C7.26562 40 6.25 38.9844 6.25 37.6562V34.375C6.25 33.5938 6.5625 32.8906 7.1875 32.4219L11.25 29.375V27.2656L3.125 29.5312C1.5625 30 0 28.75 0 27.1094V22.7344C0 21.4062 0.703125 20.1562 1.875 19.4531L11.25 14.1406V8.59375C11.25 6.95312 11.875 4.92188 12.8906 3.28125C13.3594 2.42188 13.9844 1.64062 14.7656 1.09375ZM46.25 12.5H26.25C25.5469 12.5 25 13.125 25 13.75V24.4531C25.3125 24.2969 25.625 24.1406 26.0156 23.9844L26.3281 23.0469L27.2656 19.8438C27.8906 17.7344 29.8438 16.3281 32.1094 16.3281H40.3906C42.5781 16.3281 44.5312 17.7344 45.1562 19.8438L46.0938 23.0469L46.4062 23.9844C46.7969 24.1406 47.1094 24.2969 47.5 24.4531V13.75C47.5 13.125 46.875 12.5 46.25 12.5ZM50 28.75V32.5C50 34.1406 48.9062 35.5469 47.5 36.0938V38.75C47.5 39.4531 46.875 40 46.25 40C45.5469 40 45 39.4531 45 38.75V36.25H27.5V38.75C27.5 39.4531 26.875 40 26.25 40C25.5469 40 25 39.4531 25 38.75V36.0938C23.5156 35.5469 22.5 34.1406 22.5 32.5V28.75V13.75C22.5 11.7188 24.1406 10 26.25 10H46.25C48.2812 10 50 11.7188 50 13.75V28.75ZM47.5 32.5V28.75C47.5 27.4219 46.3281 26.25 45 26.25H43.75H28.75H27.5C26.0938 26.25 25 27.4219 25 28.75V32.5C25 33.2031 25.5469 33.75 26.25 33.75H46.25C46.875 33.75 47.5 33.2031 47.5 32.5ZM43.75 23.75L42.9688 21.25L42.7344 20.5469C42.4219 19.5312 41.4844 18.75 40.3906 18.75H32.1094C30.9375 18.75 30 19.5312 29.6875 20.5469L29.4531 21.25L28.75 23.75H31.3281H41.0938H43.75ZM29.375 28.125C30.3906 28.125 31.25 28.9844 31.25 30C31.25 31.0938 30.3906 31.875 29.375 31.875C28.2812 31.875 27.5 31.0938 27.5 30C27.5 28.9844 28.2812 28.125 29.375 28.125ZM41.25 30C41.25 28.9844 42.0312 28.125 43.125 28.125C44.1406 28.125 45 28.9844 45 30C45 31.0938 44.1406 31.875 43.125 31.875C42.0312 31.875 41.25 31.0938 41.25 30Z" fill="#081E3F"/>
</svg>
