<svg width="210" height="297" viewBox="0 0 210 297" fill="none" xmlns="http://www.w3.org/2000/svg">
<g clip-path="url(#clip0_883_9160)">
<path d="M0 0H210V296.8H0V0Z" fill="#C0DD92"/>
<path d="M0 0H210V296.8H0V0Z" fill="url(#paint0_linear_883_9160)" fill-opacity="0.1"/>
<path d="M0 0H210V296.8H0V0Z" fill="black" fill-opacity="0.2"/>
<g clip-path="url(#clip1_883_9160)">
<g opacity="0.63">
<mask id="mask0_883_9160" style="mask-type:luminance" maskUnits="userSpaceOnUse" x="0" y="-19" width="264" height="332">
<path d="M263.898 312.368L263.898 -18.6484L-0.0015564 -18.6484L-0.00157087 312.368L263.898 312.368Z" fill="white"/>
</mask>
<g mask="url(#mask0_883_9160)">
<mask id="mask1_883_9160" style="mask-type:luminance" maskUnits="userSpaceOnUse" x="1" y="-7" width="252" height="307">
<path d="M252.699 299.769L252.699 -6.04688L1.41321 -6.04689L1.41319 299.769L252.699 299.769Z" fill="white"/>
</mask>
<g mask="url(#mask1_883_9160)">
<path d="M149.744 504.979C150.038 503.299 151.06 501.885 152.488 501.059L126.826 425.277C126.196 425.515 125.524 425.655 124.81 425.655C124.25 425.655 123.704 425.571 123.186 425.417L91.4057 494.717C93.0997 495.683 94.2337 497.503 94.2337 499.589C94.2337 499.617 94.2337 499.659 94.2337 499.701L149.758 504.979L149.744 504.979ZM196.14 489.677C196.014 489.215 195.944 488.725 195.944 488.207C195.944 486.513 196.686 485.001 197.862 483.951L171.85 433.719C171.136 434.167 170.31 434.461 169.414 434.545L156.296 500.401C157.906 500.695 159.264 501.661 160.09 503.005L196.14 489.677ZM328.202 443.603C327.866 442.889 327.67 442.077 327.67 441.237L174.44 429.687C174.272 431.017 173.628 432.207 172.676 433.075L198.702 483.321C199.556 482.803 200.564 482.509 201.628 482.509C203.896 482.509 205.842 483.839 206.766 485.743L328.202 443.603ZM328.93 437.681L257.236 375.787C256.242 376.683 254.912 377.243 253.47 377.243C251.636 377.243 250.012 376.361 248.99 375.003L173.782 426.187C174.188 426.915 174.44 427.741 174.482 428.623L327.782 440.173C327.95 439.235 328.356 438.381 328.93 437.681ZM332.71 435.623L301.812 178.205C301.672 178.205 301.532 178.177 301.392 178.163L255.374 366.323C257.544 367.107 259.098 369.179 259.098 371.615C259.098 372.889 258.678 374.051 257.964 374.989L329.686 436.911C330.526 436.197 331.562 435.735 332.71 435.623ZM298.774 177.085L221.452 249.661C222.25 250.641 222.74 251.887 222.74 253.245C222.74 255.569 221.326 257.571 219.324 258.425L252.028 366.197C252.49 366.071 252.98 366.001 253.484 366.001C253.778 366.001 254.072 366.029 254.352 366.071L300.37 177.925C299.796 177.729 299.264 177.449 298.788 177.085M297.976 176.371C297.108 175.419 296.576 174.173 296.52 172.801L145.222 164.317C145.124 165.423 144.718 166.445 144.06 167.285L213.696 248.765C214.634 248.051 215.81 247.617 217.098 247.617C218.456 247.617 219.716 248.107 220.682 248.905L297.962 176.357L297.976 176.371ZM297.626 169.259L195.692 80.1072C194.67 81.2132 193.2 81.9132 191.576 81.9132C190.666 81.9132 189.812 81.6892 189.042 81.3112L143.094 159.417C144.256 160.327 145.054 161.699 145.222 163.253L296.59 171.737C296.73 170.813 297.094 169.973 297.626 169.259ZM185.934 76.2852C185.934 75.9492 185.962 75.6272 186.032 75.3052L130.998 55.6492C130.354 57.3992 128.856 58.7432 127.008 59.1772L139.72 158.213C140.616 158.227 141.456 158.451 142.198 158.843L188.132 80.7372C186.802 79.7152 185.934 78.0912 185.934 76.2852ZM188.874 71.3292L139.538 -60.8448C138.992 -60.6768 138.418 -60.5788 137.83 -60.5788C137.83 -60.5788 137.816 -60.5788 137.802 -60.5788L126.798 48.1732C129.388 48.6772 131.348 50.9592 131.348 53.6892C131.348 53.9972 131.32 54.3052 131.264 54.6132L186.312 74.2692C186.788 73.0092 187.712 71.9732 188.874 71.3292ZM133.798 -62.2728L96.3758 -33.3488C96.9078 -32.4948 97.2158 -31.4868 97.2158 -30.3948C97.2158 -28.1828 95.9278 -26.2788 94.0798 -25.3548L124.404 48.2432C124.824 48.1452 125.258 48.0892 125.706 48.0892L136.71 -60.6628C135.562 -60.8868 134.554 -61.4608 133.77 -62.2588M132.202 -66.2068C132.202 -68.9648 134.19 -71.2608 136.822 -71.7368L132.678 -185.137C132.51 -185.137 132.356 -185.137 132.188 -185.165L93.1278 -35.8268C94.1498 -35.5468 95.0458 -34.9728 95.7458 -34.2168L133.14 -63.1128C132.552 -63.9948 132.216 -65.0588 132.216 -66.2068M172.83 -139.189C171.304 -140.197 170.296 -141.919 170.296 -143.893C170.296 -145.083 170.66 -146.175 171.29 -147.085L136.514 -186.621C135.744 -185.907 134.778 -185.417 133.714 -185.221L137.858 -71.8348C138.6 -71.8348 139.3 -71.6808 139.944 -71.4148L172.816 -139.189L172.83 -139.189ZM175.938 -149.507C176.694 -149.507 177.422 -149.353 178.08 -149.087L224.14 -236.139C223.328 -236.615 222.642 -237.287 222.138 -238.099L138.026 -192.655C138.236 -192.067 138.362 -191.437 138.362 -190.765C138.362 -189.505 137.942 -188.357 137.256 -187.419L172.004 -147.897C173.026 -148.891 174.412 -149.521 175.952 -149.521M221.312 -241.011C221.312 -241.347 221.34 -241.683 221.41 -242.005L110.166 -267.121C109.606 -265.399 108.248 -264.041 106.512 -263.495L132.006 -196.337C132.244 -196.365 132.482 -196.393 132.72 -196.393C134.792 -196.393 136.584 -195.273 137.564 -193.607L221.662 -239.051C221.438 -239.667 221.298 -240.325 221.298 -241.011M47.0258 -261.969C47.0258 -260.723 46.5918 -259.575 45.8918 -258.651L128.73 -194.727C129.346 -195.343 130.116 -195.819 130.97 -196.099L105.462 -263.257C105.252 -263.229 105.028 -263.215 104.804 -263.215C102.074 -263.215 99.8058 -265.161 99.2878 -267.737L47.0258 -261.969ZM43.6938 -256.901L63.6998 -199.039C64.1338 -199.137 64.5678 -199.207 65.0298 -199.207C68.0538 -199.207 70.5178 -196.813 70.6438 -193.817L127.134 -191.423C127.246 -192.333 127.568 -193.187 128.058 -193.901L45.1778 -257.867C44.7438 -257.475 44.2538 -257.139 43.7078 -256.901M65.0298 -187.951C64.8478 -187.951 64.6798 -187.951 64.4978 -187.979L51.0998 -110.349C51.7858 -110.167 52.4158 -109.859 52.9618 -109.453L128.772 -186.761C127.834 -187.699 127.218 -188.959 127.12 -190.359L70.5878 -192.767C70.1958 -190.051 67.8578 -187.965 65.0298 -187.965M53.7598 -108.739C54.6978 -107.731 55.2718 -106.387 55.2718 -104.903C55.2718 -102.943 54.2778 -101.221 52.7518 -100.213L89.0818 -35.4348C89.8378 -35.8128 90.6918 -36.0228 91.5878 -36.0228C91.7418 -36.0228 91.9098 -36.0228 92.0638 -35.9948L131.124 -185.347C130.578 -185.515 130.06 -185.753 129.584 -186.061L53.7598 -108.725L53.7598 -108.739ZM48.2858 -99.4568L34.0338 -56.7008C35.9238 -55.7908 37.2398 -53.8728 37.2398 -51.6328C37.2398 -51.0868 37.1558 -50.5548 37.0158 -50.0648L86.3378 -32.3828C86.7158 -33.3908 87.3598 -34.2448 88.1998 -34.8888L51.8278 -99.7368C51.1558 -99.4568 50.4278 -99.3028 49.6578 -99.3028C49.1818 -99.3028 48.7338 -99.3728 48.2998 -99.4708M31.7098 -45.9908L25.0458 44.5332C25.8578 44.6732 26.6138 44.9812 27.2718 45.4292L87.5558 -26.4608C86.5618 -27.4828 85.9598 -28.8548 85.9598 -30.3948C85.9598 -30.7168 85.9878 -31.0248 86.0438 -31.3188L36.6098 -49.0428C35.6858 -47.2508 33.8518 -46.0188 31.7098 -45.9768M28.1118 46.1012C29.0358 47.0252 29.6378 48.2712 29.7358 49.6572L120.19 52.6952C120.526 50.8612 121.758 49.3352 123.41 48.5792L93.0998 -24.9768C92.6238 -24.8508 92.1198 -24.7668 91.6018 -24.7668C90.3978 -24.7668 89.2918 -25.1448 88.3818 -25.7748L28.1118 46.1152L28.1118 46.1012ZM27.5798 54.5152L84.9938 136.863C85.8058 136.415 86.7298 136.163 87.7098 136.163C88.3118 136.163 88.8858 136.261 89.4318 136.429L122.948 58.6032C121.254 57.6512 120.092 55.8312 120.078 53.7452L29.7078 50.7212C29.5258 52.2612 28.7278 53.6052 27.5798 54.5012M24.8078 55.6632L28.5458 186.843C29.7358 186.941 30.8138 187.417 31.6818 188.145L83.4258 145.431C82.5998 144.451 82.0818 143.177 82.0818 141.791C82.0818 140.055 82.8658 138.501 84.1118 137.465L26.6698 55.0892C26.0958 55.3832 25.4658 55.5792 24.7938 55.6632M32.4378 188.887C33.2218 189.853 33.6978 191.085 33.6978 192.429C33.6978 194.137 32.9418 195.663 31.7378 196.699L61.4178 239.861C62.1878 239.455 63.0698 239.231 64.0078 239.231C64.1058 239.231 64.2038 239.231 64.3018 239.245L86.5618 147.293C85.6798 147.111 84.8818 146.719 84.2098 146.173L32.4518 188.901L32.4378 188.887ZM28.0698 198.057C28.0698 198.057 27.9578 198.057 27.8878 198.057L22.0918 242.227C24.2198 242.731 25.8858 244.425 26.3198 246.567L58.3798 244.607C58.4498 242.913 59.2618 241.415 60.5078 240.435L30.8558 197.315C30.0298 197.791 29.0778 198.057 28.0698 198.057ZM68.0118 248.793L125.958 323.497C126.7 323.133 127.526 322.923 128.422 322.923L139.16 169.441C138.166 169.357 137.242 169.021 136.458 168.489L68.0678 240.967C69.0338 241.975 69.6218 243.347 69.6218 244.845C69.6218 246.343 69.0058 247.771 68.0118 248.779M65.0438 250.375L86.5338 345.337C88.6338 345.505 90.3978 346.807 91.2238 348.627L122.99 330.007C122.864 329.545 122.794 329.041 122.794 328.537C122.794 326.689 123.69 325.065 125.062 324.029L67.1998 249.465C66.5698 249.899 65.8418 250.207 65.0438 250.361M91.5598 349.649C91.6578 350.069 91.7138 350.503 91.7138 350.951C91.7138 352.687 90.9297 354.241 89.6977 355.263L122.514 414.889C123.13 414.609 123.816 414.455 124.53 414.413L127.358 334.081C125.594 333.745 124.138 332.583 123.368 331.029L91.5598 349.649ZM86.0998 356.565C85.8338 356.565 85.5677 356.537 85.3017 356.495L45.0798 443.491C46.2138 444.051 47.1378 444.961 47.6838 446.095L119.406 421.581C119.266 421.091 119.182 420.559 119.182 420.013C119.182 418.095 120.134 416.415 121.604 415.393L88.8437 355.851C88.0317 356.299 87.1078 356.565 86.1138 356.565M130.214 421.539C129.836 422.911 128.954 424.073 127.764 424.801L153.454 500.625C154.014 500.429 154.602 500.331 155.218 500.317L168.336 434.559C165.48 434.293 163.24 431.885 163.24 428.959C163.24 428.679 163.268 428.413 163.296 428.147L130.2 421.539L130.214 421.539ZM166.236 423.989L130.158 333.913C129.612 334.095 129.038 334.193 128.422 334.193L125.594 414.483C128.324 414.875 130.424 417.213 130.424 420.041C130.424 420.195 130.424 420.349 130.396 420.503L163.548 427.125C164.01 425.781 164.976 424.661 166.222 424.003M196.126 333.073C195.09 334.235 193.592 334.963 191.926 334.963C191.534 334.963 191.142 334.921 190.764 334.837L170.912 423.709C171.794 424.045 172.564 424.605 173.166 425.319L248.43 374.107C248.052 373.351 247.842 372.511 247.842 371.615C247.842 370.719 248.066 369.809 248.472 369.039L196.126 333.073ZM215.95 258.747L194.53 324.351C196.322 325.289 197.554 327.165 197.554 329.335C197.554 330.385 197.26 331.379 196.756 332.219L249.046 368.143C249.578 367.471 250.25 366.939 251.02 366.561L218.302 258.747C217.924 258.831 217.518 258.873 217.112 258.873C216.706 258.873 216.328 258.831 215.95 258.747ZM190.736 323.833C191.114 323.749 191.506 323.707 191.912 323.707C192.472 323.707 193.018 323.791 193.522 323.945L214.914 258.425C212.884 257.571 211.456 255.569 211.456 253.231C211.456 251.789 212.002 250.473 212.898 249.479L143.318 168.055C142.884 168.433 142.394 168.755 141.862 168.979L190.708 323.833L190.736 323.833ZM186.298 329.405C186.298 329.405 186.298 329.363 186.298 329.335C186.298 327.011 187.712 325.009 189.728 324.155L140.882 169.315C140.672 169.371 140.462 169.399 140.238 169.427L129.5 323.021C131.754 323.455 133.532 325.233 133.952 327.501L186.298 329.405ZM169.89 423.415L189.742 334.515C188.048 333.801 186.788 332.289 186.41 330.455L134.05 328.565C134.05 330.679 132.86 332.527 131.138 333.479L167.216 423.569C167.734 423.401 168.294 423.317 168.868 423.317C169.218 423.317 169.554 423.359 169.876 423.415M92.6658 144.479C91.7138 146.215 89.8518 147.405 87.7238 147.405C87.6818 147.405 87.6398 147.405 87.6118 147.405L65.3518 239.399C66.0518 239.567 66.7098 239.875 67.2698 240.281L135.646 167.817C134.624 166.795 133.994 165.395 133.994 163.841C133.994 163.225 134.092 162.637 134.274 162.091L92.6518 144.493L92.6658 144.479ZM123.928 59.0372L90.4258 136.849C92.1758 137.801 93.3518 139.663 93.3518 141.791C93.3518 142.393 93.2538 142.967 93.0858 143.513L134.708 161.125C135.52 159.669 136.962 158.605 138.656 158.311L125.944 59.3312C125.874 59.3312 125.79 59.3312 125.72 59.3312C125.09 59.3312 124.488 59.2192 123.928 59.0372ZM48.2437 448.559C48.2437 450.155 47.5718 451.597 46.5078 452.619L85.7498 494.745C86.5898 494.255 87.5558 493.975 88.5918 493.975C89.2358 493.975 89.8518 494.087 90.4118 494.283L122.178 425.025C121.142 424.479 120.302 423.639 119.784 422.589L48.0477 447.117C48.1737 447.579 48.2437 448.069 48.2437 448.573M82.9637 499.589C82.9637 499.491 82.9637 499.393 82.9777 499.295L0.755746 488.193L0.755746 487.115L83.1317 498.245C83.4117 497.111 84.0277 496.103 84.8817 495.361L45.6677 453.277C44.7857 453.851 43.7357 454.187 42.6017 454.187C41.2157 454.187 39.9417 453.683 38.9477 452.843L0.741754 479.499L0.741754 478.197L38.2057 452.073C37.4637 451.149 37.0158 450.001 36.9738 448.727L0.741756 446.039L0.741756 444.975L37.0437 447.663C37.4637 444.975 39.7878 442.931 42.5878 442.931C43.0918 442.931 43.5817 443.001 44.0437 443.127L84.2378 356.257C83.4258 355.977 82.6838 355.515 82.0958 354.927L0.741757 413.503L0.741757 412.201L81.4238 354.115C80.8078 353.219 80.4437 352.127 80.4437 350.951C80.4437 350.559 80.4858 350.167 80.5698 349.789L0.74176 332.275L0.741761 331.183L80.8777 348.767C81.6477 346.919 83.3838 345.575 85.4418 345.351L63.9518 250.473C62.8878 250.473 61.8938 250.165 61.0398 249.647L0.727748 315.265L0.727748 313.697L60.1858 249.003C59.2478 248.149 58.6038 246.987 58.4078 245.671L26.4038 247.617C26.4038 247.617 26.4038 247.673 26.4038 247.687C26.4038 250.795 23.8838 253.315 20.7758 253.315C20.4958 253.315 20.2158 253.287 19.9498 253.245L0.727748 299.249L0.727748 296.505L18.9138 252.979C17.7518 252.573 16.7578 251.789 16.0858 250.781L0.72775 259.125L0.72775 257.907L15.5818 249.829C15.3018 249.157 15.1478 248.429 15.1478 247.659C15.1478 247.281 15.1898 246.903 15.2598 246.553L0.727751 242.227L0.727751 241.121L15.5678 245.531C16.4078 243.473 18.4238 242.031 20.7758 242.031C20.8458 242.031 20.9298 242.031 20.9998 242.031L26.7958 197.875C25.5498 197.595 24.4718 196.909 23.6878 195.971L0.727752 211.637L0.727752 210.349L23.0998 195.089C22.6658 194.291 22.4138 193.367 22.4138 192.387C22.4138 190.749 23.1138 189.293 24.2198 188.257L0.727754 159.543L0.727754 157.863L25.0598 187.613C25.7738 187.165 26.5858 186.871 27.4538 186.787L23.7158 55.6352C23.0298 55.5932 22.3718 55.4252 21.7698 55.1452L0.727757 91.5592L0.727757 89.4312L20.8458 54.6132C19.4038 53.5912 18.4658 51.9252 18.4658 50.0212C18.4658 48.4532 19.1098 47.0392 20.1318 46.0172L0.72776 22.1472L0.72776 20.4532L20.9578 45.3312C21.8258 44.7572 22.8478 44.4072 23.9538 44.3792L30.6178 -46.1588C29.2178 -46.3968 27.9998 -47.1528 27.1598 -48.2168L0.727763 -29.7648L0.727763 -31.0668L26.5858 -49.1128C26.1798 -49.8828 25.9558 -50.7648 25.9558 -51.7028C25.9558 -52.2488 26.0398 -52.7808 26.1798 -53.2708L0.727764 -60.9008L0.727764 -62.0068L26.5718 -54.2648C27.5098 -56.0848 29.3858 -57.3168 31.5698 -57.3168C32.0598 -57.3168 32.5358 -57.2468 32.9838 -57.1348L47.2358 -99.8768C46.4098 -100.269 45.6958 -100.843 45.1498 -101.557L0.713772 -77.6028L0.713772 -78.8068L44.5758 -102.453C44.1978 -103.209 43.9738 -104.063 43.9738 -104.973C43.9738 -106.331 44.4638 -107.591 45.2618 -108.557L0.713775 -147.183L0.713776 -148.583L46.0178 -109.313C46.9978 -110.125 48.2438 -110.601 49.6018 -110.601C49.7418 -110.601 49.8678 -110.601 50.0078 -110.587L63.4058 -188.245C62.2018 -188.595 61.1798 -189.337 60.4518 -190.317L0.713776 -162.877L0.713776 -164.053L59.9058 -191.227C59.5558 -191.955 59.3458 -192.781 59.3458 -193.649C59.3458 -195.917 60.6898 -197.877 62.6358 -198.759L42.6298 -256.635C42.2098 -256.537 41.7898 -256.481 41.3418 -256.481C40.7818 -256.481 40.2358 -256.565 39.7318 -256.719L0.699785 -180.153L0.699785 -182.477L38.7378 -257.125C38.2338 -257.391 37.7858 -257.713 37.3798 -258.119L0.685773 -227.767L0.685773 -229.153L36.6938 -258.945C36.1198 -259.785 35.7698 -260.793 35.7138 -261.871L0.685775 -264.531L0.685775 -265.595L35.7698 -262.935C35.8258 -263.313 35.9098 -263.677 36.0358 -264.027L0.685775 -280.771L0.685775 -281.947L36.4838 -264.993C37.4638 -266.645 39.2698 -267.765 41.3278 -267.765C41.6218 -267.765 41.9018 -267.737 42.1678 -267.695L63.6018 -352.801L64.6938 -352.801L43.2738 -267.331C45.1498 -266.673 46.5778 -265.035 46.9278 -263.033L99.1758 -268.801C99.1758 -268.801 99.1758 -268.829 99.1758 -268.843C99.1758 -271.111 100.534 -273.071 102.466 -273.953L75.2498 -352.801L76.3698 -352.801L103.474 -274.317C103.894 -274.415 104.342 -274.485 104.804 -274.485C106.008 -274.485 107.128 -274.107 108.038 -273.463L173.516 -352.801L174.888 -352.801L108.836 -272.763C109.816 -271.755 110.418 -270.369 110.418 -268.857C110.418 -268.619 110.404 -268.395 110.376 -268.157L221.69 -243.027C222.208 -244.385 223.244 -245.477 224.546 -246.093L177.31 -352.801L178.472 -352.801L225.554 -246.457C225.946 -246.555 226.352 -246.611 226.772 -246.625L225.232 -309.905C222.236 -310.031 219.842 -312.495 219.842 -315.519C219.842 -316.583 220.136 -317.563 220.654 -318.403L180.754 -352.801L182.378 -352.801L221.27 -319.257C222.306 -320.405 223.79 -321.147 225.456 -321.147C225.89 -321.147 226.296 -321.091 226.702 -321.007L237.3 -352.801L238.42 -352.801L227.738 -320.671C229.712 -319.803 231.098 -317.815 231.098 -315.519C231.098 -312.691 229.012 -310.353 226.296 -309.961L227.836 -246.555C230.51 -246.121 232.568 -243.811 232.568 -241.011C232.568 -237.903 230.048 -235.383 226.94 -235.383C226.296 -235.383 225.68 -235.495 225.092 -235.691L179.004 -148.583C180.53 -147.575 181.552 -145.853 181.552 -143.879C181.552 -140.771 179.032 -138.251 175.924 -138.251C175.168 -138.251 174.426 -138.405 173.768 -138.685L140.896 -70.9108C142.436 -69.9028 143.444 -68.1668 143.444 -66.2068C143.444 -64.0788 142.254 -62.2168 140.504 -61.2648L189.84 70.9092C190.372 70.7412 190.946 70.6432 191.548 70.6432C194.656 70.6432 197.176 73.1632 197.176 76.2712C197.176 77.3632 196.854 78.3852 196.322 79.2532L298.326 168.461C299.334 167.537 300.664 166.963 302.134 166.963C305.242 166.963 307.762 169.483 307.762 172.591C307.762 175.447 305.634 177.799 302.862 178.163L333.774 435.623C336.658 435.861 338.926 438.283 338.926 441.223C338.926 444.331 336.406 446.851 333.298 446.851C331.898 446.851 330.61 446.333 329.63 445.479L239.848 533.735L238.392 533.735L328.888 444.709C328.888 444.709 328.804 444.597 328.762 444.541L207.144 486.751C207.27 487.213 207.34 487.703 207.34 488.207C207.34 489.971 206.542 491.539 205.296 492.589L234.528 533.735L233.226 533.735L204.414 493.191C203.588 493.653 202.65 493.919 201.642 493.919C199.374 493.919 197.428 492.603 196.504 490.685L160.566 503.971C160.79 504.587 160.916 505.245 160.916 505.931C160.916 507.485 160.286 508.885 159.264 509.907L171.92 533.735L170.702 533.735L158.41 510.607C157.514 511.209 156.436 511.559 155.274 511.559C153.314 511.559 151.592 510.551 150.584 509.025L97.4958 533.721L94.9757 533.721L150.08 508.073C149.814 507.443 149.674 506.743 149.66 506.015L94.0937 500.737C93.6177 503.019 91.7557 504.783 89.4177 505.133L82.0118 533.721L80.9477 533.721L88.3538 505.189C86.5198 505.119 84.8957 504.167 83.9297 502.739L14.1118 533.721L11.7177 533.721L83.4118 501.801C83.1178 501.115 82.9498 500.373 82.9498 499.575" fill="#C0DD92"/>
</g>
</g>
</g>
</g>
<path d="M106.398 183.4C106.398 171.029 116.427 161 128.798 161H173.598C185.97 161 195.998 171.029 195.998 183.4V260.4C195.998 272.771 185.97 282.8 173.598 282.8H128.798C116.427 282.8 106.398 272.771 106.398 260.4V183.4Z" fill="#C0DD92"/>
<path d="M127.399 207.173C125.726 207.173 124.424 208.568 124.424 210.148V233.948C124.424 235.622 125.726 236.923 127.399 236.923H174.999C176.58 236.923 177.974 235.622 177.974 233.948V210.148C177.974 208.568 176.58 207.173 174.999 207.173H127.399ZM121.449 210.148C121.449 206.895 124.052 204.198 127.399 204.198H174.999C178.253 204.198 180.949 206.895 180.949 210.148V233.948C180.949 237.295 178.253 239.898 174.999 239.898H127.399C124.052 239.898 121.449 237.295 121.449 233.948V210.148ZM130.374 213.123V219.073H151.199V213.123H130.374ZM127.399 213.123C127.399 211.543 128.701 210.148 130.374 210.148H151.199C152.78 210.148 154.174 211.543 154.174 213.123V219.073C154.174 220.747 152.78 222.048 151.199 222.048H130.374C128.701 222.048 127.399 220.747 127.399 219.073V213.123ZM127.399 232.461C127.399 231.717 128.05 230.973 128.887 230.973H152.687C153.43 230.973 154.174 231.717 154.174 232.461C154.174 233.298 153.43 233.948 152.687 233.948H128.887C128.05 233.948 127.399 233.298 127.399 232.461ZM157.149 232.461C157.149 231.717 157.8 230.973 158.637 230.973H173.512C174.255 230.973 174.999 231.717 174.999 232.461C174.999 233.298 174.255 233.948 173.512 233.948H158.637C157.8 233.948 157.149 233.298 157.149 232.461ZM128.887 225.023C129.63 225.023 130.374 225.767 130.374 226.511C130.374 227.348 129.63 227.998 128.887 227.998C128.05 227.998 127.399 227.348 127.399 226.511C127.399 225.767 128.05 225.023 128.887 225.023ZM133.349 226.511C133.349 225.767 134 225.023 134.837 225.023C135.58 225.023 136.324 225.767 136.324 226.511C136.324 227.348 135.58 227.998 134.837 227.998C134 227.998 133.349 227.348 133.349 226.511ZM140.787 225.023C141.53 225.023 142.274 225.767 142.274 226.511C142.274 227.348 141.53 227.998 140.787 227.998C139.95 227.998 139.299 227.348 139.299 226.511C139.299 225.767 139.95 225.023 140.787 225.023ZM145.249 226.511C145.249 225.767 145.9 225.023 146.737 225.023C147.48 225.023 148.224 225.767 148.224 226.511C148.224 227.348 147.48 227.998 146.737 227.998C145.9 227.998 145.249 227.348 145.249 226.511ZM152.687 225.023C153.43 225.023 154.174 225.767 154.174 226.511C154.174 227.348 153.43 227.998 152.687 227.998C151.85 227.998 151.199 227.348 151.199 226.511C151.199 225.767 151.85 225.023 152.687 225.023Z" fill="#081E3F"/>
</g>
<defs>
<linearGradient id="paint0_linear_883_9160" x1="105" y1="-469" x2="105" y2="271.6" gradientUnits="userSpaceOnUse">
<stop/>
<stop offset="1" stop-opacity="0"/>
</linearGradient>
<clipPath id="clip0_883_9160">
<rect width="210" height="297" fill="white"/>
</clipPath>
<clipPath id="clip1_883_9160">
<rect width="886.536" height="338.926" fill="white" transform="translate(338.926 -352.801) rotate(90)"/>
</clipPath>
</defs>
</svg>
