<svg width="210" height="297" viewBox="0 0 210 297" fill="none" xmlns="http://www.w3.org/2000/svg">
<g clip-path="url(#clip0_883_9159)">
<path d="M0 0H210V296.8H0V0Z" fill="#081E3F"/>
<path d="M0 0H210V296.8H0V0Z" fill="white" fill-opacity="0.2"/>
<path d="M27.3313 22.0942C26.9333 22.0942 26.6016 21.7625 26.6016 21.3479C26.6016 20.9333 26.9333 20.6016 27.3313 20.6016C27.7293 20.6016 28.0611 20.9333 28.0611 21.3479C28.0611 21.7625 27.7293 22.0942 27.3313 22.0942Z" fill="#A1FEB5" stroke="#A1FEB5" stroke-width="0.348289" stroke-miterlimit="10"/>
<path d="M58.5501 22.0942C58.152 22.0942 57.8203 21.7625 57.8203 21.3479C57.8203 20.9333 58.152 20.6016 58.5501 20.6016C58.9481 20.6016 59.2798 20.9333 59.2798 21.3479C59.2798 21.7625 58.9481 22.0942 58.5501 22.0942Z" fill="#A1FEB5" stroke="#A1FEB5" stroke-width="0.348289" stroke-miterlimit="10"/>
<path d="M89.7727 22.0942C89.3747 22.0942 89.043 21.7625 89.043 21.3479C89.043 20.9333 89.3747 20.6016 89.7727 20.6016C90.1708 20.6016 90.5025 20.9333 90.5025 21.3479C90.5025 21.7625 90.1708 22.0942 89.7727 22.0942Z" fill="#A1FEB5" stroke="#A1FEB5" stroke-width="0.348289" stroke-miterlimit="10"/>
<path d="M120.991 22.0942C120.593 22.0942 120.262 21.7625 120.262 21.3479C120.262 20.9333 120.593 20.6016 120.991 20.6016C121.39 20.6016 121.721 20.9333 121.721 21.3479C121.721 21.7625 121.39 22.0942 120.991 22.0942Z" fill="#A1FEB5" stroke="#A1FEB5" stroke-width="0.348289" stroke-miterlimit="10"/>
<path d="M152.21 22.0942C151.812 22.0942 151.48 21.7625 151.48 21.3479C151.48 20.9333 151.812 20.6016 152.21 20.6016C152.608 20.6016 152.94 20.9333 152.94 21.3479C152.94 21.7625 152.608 22.0942 152.21 22.0942Z" fill="#A1FEB5" stroke="#A1FEB5" stroke-width="0.348289" stroke-miterlimit="10"/>
<path d="M183.433 22.0942C183.035 22.0942 182.703 21.7625 182.703 21.3479C182.703 20.9333 183.035 20.6016 183.433 20.6016C183.831 20.6016 184.163 20.9333 184.163 21.3479C184.163 21.7625 183.831 22.0942 183.433 22.0942Z" fill="#A1FEB5" stroke="#A1FEB5" stroke-width="0.348289" stroke-miterlimit="10"/>
<path d="M27.3313 45.1489C26.9333 45.1489 26.6016 44.8172 26.6016 44.4026C26.6016 43.988 26.9333 43.6562 27.3313 43.6562C27.7293 43.6562 28.0611 43.988 28.0611 44.4026C28.0611 44.8172 27.7293 45.1489 27.3313 45.1489Z" fill="#A1FEB5" stroke="#A1FEB5" stroke-width="0.348289" stroke-miterlimit="10"/>
<path d="M58.5501 45.1489C58.152 45.1489 57.8203 44.8172 57.8203 44.4026C57.8203 43.988 58.152 43.6562 58.5501 43.6562C58.9481 43.6562 59.2798 43.988 59.2798 44.4026C59.2798 44.8172 58.9481 45.1489 58.5501 45.1489Z" fill="#A1FEB5" stroke="#A1FEB5" stroke-width="0.348289" stroke-miterlimit="10"/>
<path d="M89.7727 45.1489C89.3747 45.1489 89.043 44.8172 89.043 44.4026C89.043 43.988 89.3747 43.6562 89.7727 43.6562C90.1708 43.6562 90.5025 43.988 90.5025 44.4026C90.5025 44.8172 90.1708 45.1489 89.7727 45.1489Z" fill="#A1FEB5" stroke="#A1FEB5" stroke-width="0.348289" stroke-miterlimit="10"/>
<path d="M120.991 45.1489C120.593 45.1489 120.262 44.8172 120.262 44.4026C120.262 43.988 120.593 43.6562 120.991 43.6562C121.39 43.6562 121.721 43.988 121.721 44.4026C121.721 44.8172 121.39 45.1489 120.991 45.1489Z" fill="#A1FEB5" stroke="#A1FEB5" stroke-width="0.348289" stroke-miterlimit="10"/>
<path d="M152.21 45.1489C151.812 45.1489 151.48 44.8172 151.48 44.4026C151.48 43.988 151.812 43.6562 152.21 43.6562C152.608 43.6562 152.94 43.988 152.94 44.4026C152.94 44.8172 152.608 45.1489 152.21 45.1489Z" fill="#A1FEB5" stroke="#A1FEB5" stroke-width="0.348289" stroke-miterlimit="10"/>
<path d="M183.433 45.1489C183.035 45.1489 182.703 44.8172 182.703 44.4026C182.703 43.988 183.035 43.6562 183.433 43.6562C183.831 43.6562 184.163 43.988 184.163 44.4026C184.163 44.8172 183.831 45.1489 183.433 45.1489Z" fill="#A1FEB5" stroke="#A1FEB5" stroke-width="0.348289" stroke-miterlimit="10"/>
<path d="M27.3313 68.1997C26.9333 68.1997 26.6016 67.868 26.6016 67.4534C26.6016 67.0387 26.9333 66.707 27.3313 66.707C27.7293 66.707 28.0611 67.0387 28.0611 67.4534C28.0611 67.868 27.7293 68.1997 27.3313 68.1997Z" fill="#A1FEB5" stroke="#A1FEB5" stroke-width="0.348289" stroke-miterlimit="10"/>
<path d="M58.5501 68.1997C58.152 68.1997 57.8203 67.868 57.8203 67.4534C57.8203 67.0387 58.152 66.707 58.5501 66.707C58.9481 66.707 59.2798 67.0387 59.2798 67.4534C59.2798 67.868 58.9481 68.1997 58.5501 68.1997Z" fill="#A1FEB5" stroke="#A1FEB5" stroke-width="0.348289" stroke-miterlimit="10"/>
<path d="M89.7727 68.1997C89.3747 68.1997 89.043 67.868 89.043 67.4534C89.043 67.0387 89.3747 66.707 89.7727 66.707C90.1708 66.707 90.5025 67.0387 90.5025 67.4534C90.5025 67.868 90.1708 68.1997 89.7727 68.1997Z" fill="#A1FEB5" stroke="#A1FEB5" stroke-width="0.348289" stroke-miterlimit="10"/>
<path d="M120.991 68.1997C120.593 68.1997 120.262 67.868 120.262 67.4534C120.262 67.0387 120.593 66.707 120.991 66.707C121.39 66.707 121.721 67.0387 121.721 67.4534C121.721 67.868 121.39 68.1997 120.991 68.1997Z" fill="#A1FEB5" stroke="#A1FEB5" stroke-width="0.348289" stroke-miterlimit="10"/>
<path d="M152.21 68.1997C151.812 68.1997 151.48 67.868 151.48 67.4534C151.48 67.0387 151.812 66.707 152.21 66.707C152.608 66.707 152.94 67.0387 152.94 67.4534C152.94 67.868 152.608 68.1997 152.21 68.1997Z" fill="#A1FEB5" stroke="#A1FEB5" stroke-width="0.348289" stroke-miterlimit="10"/>
<path d="M183.433 68.1997C183.035 68.1997 182.703 67.868 182.703 67.4534C182.703 67.0387 183.035 66.707 183.433 66.707C183.831 66.707 184.163 67.0387 184.163 67.4534C184.163 67.868 183.831 68.1997 183.433 68.1997Z" fill="#A1FEB5" stroke="#A1FEB5" stroke-width="0.348289" stroke-miterlimit="10"/>
<path d="M27.3313 91.2544C26.9333 91.2544 26.6016 90.9227 26.6016 90.5081C26.6016 90.0934 26.9333 89.7617 27.3313 89.7617C27.7293 89.7617 28.0611 90.0934 28.0611 90.5081C28.0611 90.9227 27.7293 91.2544 27.3313 91.2544Z" fill="#A1FEB5" stroke="#A1FEB5" stroke-width="0.348289" stroke-miterlimit="10"/>
<path d="M58.5501 91.2544C58.152 91.2544 57.8203 90.9227 57.8203 90.5081C57.8203 90.0934 58.152 89.7617 58.5501 89.7617C58.9481 89.7617 59.2798 90.0934 59.2798 90.5081C59.2798 90.9227 58.9481 91.2544 58.5501 91.2544Z" fill="#A1FEB5" stroke="#A1FEB5" stroke-width="0.348289" stroke-miterlimit="10"/>
<path d="M89.7727 91.2544C89.3747 91.2544 89.043 90.9227 89.043 90.5081C89.043 90.0934 89.3747 89.7617 89.7727 89.7617C90.1708 89.7617 90.5025 90.0934 90.5025 90.5081C90.5025 90.9227 90.1708 91.2544 89.7727 91.2544Z" fill="#A1FEB5" stroke="#A1FEB5" stroke-width="0.348289" stroke-miterlimit="10"/>
<path d="M120.991 91.2544C120.593 91.2544 120.262 90.9227 120.262 90.5081C120.262 90.0934 120.593 89.7617 120.991 89.7617C121.39 89.7617 121.721 90.0934 121.721 90.5081C121.721 90.9227 121.39 91.2544 120.991 91.2544Z" fill="#A1FEB5" stroke="#A1FEB5" stroke-width="0.348289" stroke-miterlimit="10"/>
<path d="M152.21 91.2544C151.812 91.2544 151.48 90.9227 151.48 90.5081C151.48 90.0934 151.812 89.7617 152.21 89.7617C152.608 89.7617 152.94 90.0934 152.94 90.5081C152.94 90.9227 152.608 91.2544 152.21 91.2544Z" fill="#A1FEB5" stroke="#A1FEB5" stroke-width="0.348289" stroke-miterlimit="10"/>
<path d="M183.433 91.2544C183.035 91.2544 182.703 90.9227 182.703 90.5081C182.703 90.0934 183.035 89.7617 183.433 89.7617C183.831 89.7617 184.163 90.0934 184.163 90.5081C184.163 90.9227 183.831 91.2544 183.433 91.2544Z" fill="#A1FEB5" stroke="#A1FEB5" stroke-width="0.348289" stroke-miterlimit="10"/>
<path d="M27.3313 114.309C26.9333 114.309 26.6016 113.977 26.6016 113.563C26.6016 113.148 26.9333 112.816 27.3313 112.816C27.7293 112.816 28.0611 113.148 28.0611 113.563C28.0611 113.977 27.7293 114.309 27.3313 114.309Z" fill="#A1FEB5" stroke="#A1FEB5" stroke-width="0.348289" stroke-miterlimit="10"/>
<path d="M58.5501 114.309C58.152 114.309 57.8203 113.977 57.8203 113.563C57.8203 113.148 58.152 112.816 58.5501 112.816C58.9481 112.816 59.2798 113.148 59.2798 113.563C59.2798 113.977 58.9481 114.309 58.5501 114.309Z" fill="#A1FEB5" stroke="#A1FEB5" stroke-width="0.348289" stroke-miterlimit="10"/>
<path d="M89.7727 114.309C89.3747 114.309 89.043 113.977 89.043 113.563C89.043 113.148 89.3747 112.816 89.7727 112.816C90.1708 112.816 90.5025 113.148 90.5025 113.563C90.5025 113.977 90.1708 114.309 89.7727 114.309Z" fill="#A1FEB5" stroke="#A1FEB5" stroke-width="0.348289" stroke-miterlimit="10"/>
<path d="M120.991 114.309C120.593 114.309 120.262 113.977 120.262 113.563C120.262 113.148 120.593 112.816 120.991 112.816C121.39 112.816 121.721 113.148 121.721 113.563C121.721 113.977 121.39 114.309 120.991 114.309Z" fill="#A1FEB5" stroke="#A1FEB5" stroke-width="0.348289" stroke-miterlimit="10"/>
<path d="M152.21 114.309C151.812 114.309 151.48 113.977 151.48 113.563C151.48 113.148 151.812 112.816 152.21 112.816C152.608 112.816 152.94 113.148 152.94 113.563C152.94 113.977 152.608 114.309 152.21 114.309Z" fill="#A1FEB5" stroke="#A1FEB5" stroke-width="0.348289" stroke-miterlimit="10"/>
<path d="M183.433 114.309C183.035 114.309 182.703 113.977 182.703 113.563C182.703 113.148 183.035 112.816 183.433 112.816C183.831 112.816 184.163 113.148 184.163 113.563C184.163 113.977 183.831 114.309 183.433 114.309Z" fill="#A1FEB5" stroke="#A1FEB5" stroke-width="0.348289" stroke-miterlimit="10"/>
<path d="M27.3313 137.36C26.9333 137.36 26.6016 137.028 26.6016 136.614C26.6016 136.199 26.9333 135.867 27.3313 135.867C27.7293 135.867 28.0611 136.199 28.0611 136.614C28.0611 137.028 27.7293 137.36 27.3313 137.36Z" fill="#A1FEB5" stroke="#A1FEB5" stroke-width="0.348289" stroke-miterlimit="10"/>
<path d="M58.5501 137.36C58.152 137.36 57.8203 137.028 57.8203 136.614C57.8203 136.199 58.152 135.867 58.5501 135.867C58.9481 135.867 59.2798 136.199 59.2798 136.614C59.2798 137.028 58.9481 137.36 58.5501 137.36Z" fill="#A1FEB5" stroke="#A1FEB5" stroke-width="0.348289" stroke-miterlimit="10"/>
<path d="M89.7727 137.36C89.3747 137.36 89.043 137.028 89.043 136.614C89.043 136.199 89.3747 135.867 89.7727 135.867C90.1708 135.867 90.5025 136.199 90.5025 136.614C90.5025 137.028 90.1708 137.36 89.7727 137.36Z" fill="#A1FEB5" stroke="#A1FEB5" stroke-width="0.348289" stroke-miterlimit="10"/>
<path d="M120.991 137.36C120.593 137.36 120.262 137.028 120.262 136.614C120.262 136.199 120.593 135.867 120.991 135.867C121.39 135.867 121.721 136.199 121.721 136.614C121.721 137.028 121.39 137.36 120.991 137.36Z" fill="#A1FEB5" stroke="#A1FEB5" stroke-width="0.348289" stroke-miterlimit="10"/>
<path d="M152.21 137.36C151.812 137.36 151.48 137.028 151.48 136.614C151.48 136.199 151.812 135.867 152.21 135.867C152.608 135.867 152.94 136.199 152.94 136.614C152.94 137.028 152.608 137.36 152.21 137.36Z" fill="#A1FEB5" stroke="#A1FEB5" stroke-width="0.348289" stroke-miterlimit="10"/>
<path d="M183.433 137.36C183.035 137.36 182.703 137.028 182.703 136.614C182.703 136.199 183.035 135.867 183.433 135.867C183.831 135.867 184.163 136.199 184.163 136.614C184.163 137.028 183.831 137.36 183.433 137.36Z" fill="#A1FEB5" stroke="#A1FEB5" stroke-width="0.348289" stroke-miterlimit="10"/>
<path d="M27.3313 160.415C26.9333 160.415 26.6016 160.083 26.6016 159.668C26.6016 159.254 26.9333 158.922 27.3313 158.922C27.7293 158.922 28.0611 159.254 28.0611 159.668C28.0611 160.083 27.7293 160.415 27.3313 160.415Z" fill="#A1FEB5" stroke="#A1FEB5" stroke-width="0.348289" stroke-miterlimit="10"/>
<path d="M58.5501 160.415C58.152 160.415 57.8203 160.083 57.8203 159.668C57.8203 159.254 58.152 158.922 58.5501 158.922C58.9481 158.922 59.2798 159.254 59.2798 159.668C59.2798 160.083 58.9481 160.415 58.5501 160.415Z" fill="#A1FEB5" stroke="#A1FEB5" stroke-width="0.348289" stroke-miterlimit="10"/>
<path d="M89.7727 160.415C89.3747 160.415 89.043 160.083 89.043 159.668C89.043 159.254 89.3747 158.922 89.7727 158.922C90.1708 158.922 90.5025 159.254 90.5025 159.668C90.5025 160.083 90.1708 160.415 89.7727 160.415Z" fill="#A1FEB5" stroke="#A1FEB5" stroke-width="0.348289" stroke-miterlimit="10"/>
<path d="M120.991 160.415C120.593 160.415 120.262 160.083 120.262 159.668C120.262 159.254 120.593 158.922 120.991 158.922C121.39 158.922 121.721 159.254 121.721 159.668C121.721 160.083 121.39 160.415 120.991 160.415Z" fill="#A1FEB5" stroke="#A1FEB5" stroke-width="0.348289" stroke-miterlimit="10"/>
<path d="M152.21 160.415C151.812 160.415 151.48 160.083 151.48 159.668C151.48 159.254 151.812 158.922 152.21 158.922C152.608 158.922 152.94 159.254 152.94 159.668C152.94 160.083 152.608 160.415 152.21 160.415Z" fill="#A1FEB5" stroke="#A1FEB5" stroke-width="0.348289" stroke-miterlimit="10"/>
<path d="M183.433 160.415C183.035 160.415 182.703 160.083 182.703 159.668C182.703 159.254 183.035 158.922 183.433 158.922C183.831 158.922 184.163 159.254 184.163 159.668C184.163 160.083 183.831 160.415 183.433 160.415Z" fill="#A1FEB5" stroke="#A1FEB5" stroke-width="0.348289" stroke-miterlimit="10"/>
<path d="M27.3313 183.469C26.9333 183.469 26.6016 183.138 26.6016 182.723C26.6016 182.308 26.9333 181.977 27.3313 181.977C27.7293 181.977 28.0611 182.308 28.0611 182.723C28.0611 183.138 27.7293 183.469 27.3313 183.469Z" fill="#A1FEB5" stroke="#A1FEB5" stroke-width="0.348289" stroke-miterlimit="10"/>
<path d="M58.5501 183.469C58.152 183.469 57.8203 183.138 57.8203 182.723C57.8203 182.308 58.152 181.977 58.5501 181.977C58.9481 181.977 59.2798 182.308 59.2798 182.723C59.2798 183.138 58.9481 183.469 58.5501 183.469Z" fill="#A1FEB5" stroke="#A1FEB5" stroke-width="0.348289" stroke-miterlimit="10"/>
<path d="M89.7727 183.469C89.3747 183.469 89.043 183.138 89.043 182.723C89.043 182.308 89.3747 181.977 89.7727 181.977C90.1708 181.977 90.5025 182.308 90.5025 182.723C90.5025 183.138 90.1708 183.469 89.7727 183.469Z" fill="#A1FEB5" stroke="#A1FEB5" stroke-width="0.348289" stroke-miterlimit="10"/>
<path d="M120.991 183.469C120.593 183.469 120.262 183.138 120.262 182.723C120.262 182.308 120.593 181.977 120.991 181.977C121.39 181.977 121.721 182.308 121.721 182.723C121.721 183.138 121.39 183.469 120.991 183.469Z" fill="#A1FEB5" stroke="#A1FEB5" stroke-width="0.348289" stroke-miterlimit="10"/>
<path d="M152.21 183.469C151.812 183.469 151.48 183.138 151.48 182.723C151.48 182.308 151.812 181.977 152.21 181.977C152.608 181.977 152.94 182.308 152.94 182.723C152.94 183.138 152.608 183.469 152.21 183.469Z" fill="#A1FEB5" stroke="#A1FEB5" stroke-width="0.348289" stroke-miterlimit="10"/>
<path d="M183.433 183.469C183.035 183.469 182.703 183.138 182.703 182.723C182.703 182.308 183.035 181.977 183.433 181.977C183.831 181.977 184.163 182.308 184.163 182.723C184.163 183.138 183.831 183.469 183.433 183.469Z" fill="#A1FEB5" stroke="#A1FEB5" stroke-width="0.348289" stroke-miterlimit="10"/>
<path d="M27.3313 206.52C26.9333 206.52 26.6016 206.188 26.6016 205.774C26.6016 205.359 26.9333 205.027 27.3313 205.027C27.7293 205.027 28.0611 205.359 28.0611 205.774C28.0611 206.188 27.7293 206.52 27.3313 206.52Z" fill="#A1FEB5" stroke="#A1FEB5" stroke-width="0.348289" stroke-miterlimit="10"/>
<path d="M58.5501 206.52C58.152 206.52 57.8203 206.188 57.8203 205.774C57.8203 205.359 58.152 205.027 58.5501 205.027C58.9481 205.027 59.2798 205.359 59.2798 205.774C59.2798 206.188 58.9481 206.52 58.5501 206.52Z" fill="#A1FEB5" stroke="#A1FEB5" stroke-width="0.348289" stroke-miterlimit="10"/>
<path d="M89.7727 206.52C89.3747 206.52 89.043 206.188 89.043 205.774C89.043 205.359 89.3747 205.027 89.7727 205.027C90.1708 205.027 90.5025 205.359 90.5025 205.774C90.5025 206.188 90.1708 206.52 89.7727 206.52Z" fill="#A1FEB5" stroke="#A1FEB5" stroke-width="0.348289" stroke-miterlimit="10"/>
<path d="M120.991 206.52C120.593 206.52 120.262 206.188 120.262 205.774C120.262 205.359 120.593 205.027 120.991 205.027C121.39 205.027 121.721 205.359 121.721 205.774C121.721 206.188 121.39 206.52 120.991 206.52Z" fill="#A1FEB5" stroke="#A1FEB5" stroke-width="0.348289" stroke-miterlimit="10"/>
<path d="M152.21 206.52C151.812 206.52 151.48 206.188 151.48 205.774C151.48 205.359 151.812 205.027 152.21 205.027C152.608 205.027 152.94 205.359 152.94 205.774C152.94 206.188 152.608 206.52 152.21 206.52Z" fill="#A1FEB5" stroke="#A1FEB5" stroke-width="0.348289" stroke-miterlimit="10"/>
<path d="M183.433 206.52C183.035 206.52 182.703 206.188 182.703 205.774C182.703 205.359 183.035 205.027 183.433 205.027C183.831 205.027 184.163 205.359 184.163 205.774C184.163 206.188 183.831 206.52 183.433 206.52Z" fill="#A1FEB5" stroke="#A1FEB5" stroke-width="0.348289" stroke-miterlimit="10"/>
<path d="M27.3313 229.575C26.9333 229.575 26.6016 229.243 26.6016 228.828C26.6016 228.414 26.9333 228.082 27.3313 228.082C27.7293 228.082 28.0611 228.414 28.0611 228.828C28.0611 229.243 27.7293 229.575 27.3313 229.575Z" fill="#A1FEB5" stroke="#A1FEB5" stroke-width="0.348289" stroke-miterlimit="10"/>
<path d="M58.5501 229.575C58.152 229.575 57.8203 229.243 57.8203 228.828C57.8203 228.414 58.152 228.082 58.5501 228.082C58.9481 228.082 59.2798 228.414 59.2798 228.828C59.2798 229.243 58.9481 229.575 58.5501 229.575Z" fill="#A1FEB5" stroke="#A1FEB5" stroke-width="0.348289" stroke-miterlimit="10"/>
<path d="M89.7727 229.575C89.3747 229.575 89.043 229.243 89.043 228.828C89.043 228.414 89.3747 228.082 89.7727 228.082C90.1708 228.082 90.5025 228.414 90.5025 228.828C90.5025 229.243 90.1708 229.575 89.7727 229.575Z" fill="#A1FEB5" stroke="#A1FEB5" stroke-width="0.348289" stroke-miterlimit="10"/>
<path d="M120.991 229.575C120.593 229.575 120.262 229.243 120.262 228.828C120.262 228.414 120.593 228.082 120.991 228.082C121.39 228.082 121.721 228.414 121.721 228.828C121.721 229.243 121.39 229.575 120.991 229.575Z" fill="#A1FEB5" stroke="#A1FEB5" stroke-width="0.348289" stroke-miterlimit="10"/>
<path d="M152.21 229.575C151.812 229.575 151.48 229.243 151.48 228.828C151.48 228.414 151.812 228.082 152.21 228.082C152.608 228.082 152.94 228.414 152.94 228.828C152.94 229.243 152.608 229.575 152.21 229.575Z" fill="#A1FEB5" stroke="#A1FEB5" stroke-width="0.348289" stroke-miterlimit="10"/>
<path d="M183.433 229.575C183.035 229.575 182.703 229.243 182.703 228.828C182.703 228.414 183.035 228.082 183.433 228.082C183.831 228.082 184.163 228.414 184.163 228.828C184.163 229.243 183.831 229.575 183.433 229.575Z" fill="#A1FEB5" stroke="#A1FEB5" stroke-width="0.348289" stroke-miterlimit="10"/>
<path d="M27.3313 252.629C26.9333 252.629 26.6016 252.298 26.6016 251.883C26.6016 251.468 26.9333 251.137 27.3313 251.137C27.7293 251.137 28.0611 251.468 28.0611 251.883C28.0611 252.298 27.7293 252.629 27.3313 252.629Z" fill="#A1FEB5" stroke="#A1FEB5" stroke-width="0.348289" stroke-miterlimit="10"/>
<path d="M58.5501 252.629C58.152 252.629 57.8203 252.298 57.8203 251.883C57.8203 251.468 58.152 251.137 58.5501 251.137C58.9481 251.137 59.2798 251.468 59.2798 251.883C59.2798 252.298 58.9481 252.629 58.5501 252.629Z" fill="#A1FEB5" stroke="#A1FEB5" stroke-width="0.348289" stroke-miterlimit="10"/>
<path d="M89.7727 252.629C89.3747 252.629 89.043 252.298 89.043 251.883C89.043 251.468 89.3747 251.137 89.7727 251.137C90.1708 251.137 90.5025 251.468 90.5025 251.883C90.5025 252.298 90.1708 252.629 89.7727 252.629Z" fill="#A1FEB5" stroke="#A1FEB5" stroke-width="0.348289" stroke-miterlimit="10"/>
<path d="M120.991 252.629C120.593 252.629 120.262 252.298 120.262 251.883C120.262 251.468 120.593 251.137 120.991 251.137C121.39 251.137 121.721 251.468 121.721 251.883C121.721 252.298 121.39 252.629 120.991 252.629Z" fill="#A1FEB5" stroke="#A1FEB5" stroke-width="0.348289" stroke-miterlimit="10"/>
<path d="M152.21 252.629C151.812 252.629 151.48 252.298 151.48 251.883C151.48 251.468 151.812 251.137 152.21 251.137C152.608 251.137 152.94 251.468 152.94 251.883C152.94 252.298 152.608 252.629 152.21 252.629Z" fill="#A1FEB5" stroke="#A1FEB5" stroke-width="0.348289" stroke-miterlimit="10"/>
<path d="M183.433 252.629C183.035 252.629 182.703 252.298 182.703 251.883C182.703 251.468 183.035 251.137 183.433 251.137C183.831 251.137 184.163 251.468 184.163 251.883C184.163 252.298 183.831 252.629 183.433 252.629Z" fill="#A1FEB5" stroke="#A1FEB5" stroke-width="0.348289" stroke-miterlimit="10"/>
<path d="M27.3313 275.68C26.9333 275.68 26.6016 275.348 26.6016 274.934C26.6016 274.519 26.9333 274.188 27.3313 274.188C27.7293 274.188 28.0611 274.519 28.0611 274.934C28.0611 275.348 27.7293 275.68 27.3313 275.68Z" fill="#A1FEB5" stroke="#A1FEB5" stroke-width="0.348289" stroke-miterlimit="10"/>
<path d="M58.5501 275.68C58.152 275.68 57.8203 275.348 57.8203 274.934C57.8203 274.519 58.152 274.188 58.5501 274.188C58.9481 274.188 59.2798 274.519 59.2798 274.934C59.2798 275.348 58.9481 275.68 58.5501 275.68Z" fill="#A1FEB5" stroke="#A1FEB5" stroke-width="0.348289" stroke-miterlimit="10"/>
<path d="M89.7727 275.68C89.3747 275.68 89.043 275.348 89.043 274.934C89.043 274.519 89.3747 274.188 89.7727 274.188C90.1708 274.188 90.5025 274.519 90.5025 274.934C90.5025 275.348 90.1708 275.68 89.7727 275.68Z" fill="#A1FEB5" stroke="#A1FEB5" stroke-width="0.348289" stroke-miterlimit="10"/>
<path d="M120.991 275.68C120.593 275.68 120.262 275.348 120.262 274.934C120.262 274.519 120.593 274.188 120.991 274.188C121.39 274.188 121.721 274.519 121.721 274.934C121.721 275.348 121.39 275.68 120.991 275.68Z" fill="#A1FEB5" stroke="#A1FEB5" stroke-width="0.348289" stroke-miterlimit="10"/>
<path d="M152.21 275.68C151.812 275.68 151.48 275.348 151.48 274.934C151.48 274.519 151.812 274.188 152.21 274.188C152.608 274.188 152.94 274.519 152.94 274.934C152.94 275.348 152.608 275.68 152.21 275.68Z" fill="#A1FEB5" stroke="#A1FEB5" stroke-width="0.348289" stroke-miterlimit="10"/>
<path d="M183.433 275.68C183.035 275.68 182.703 275.348 182.703 274.934C182.703 274.519 183.035 274.188 183.433 274.188C183.831 274.188 184.163 274.519 184.163 274.934C184.163 275.348 183.831 275.68 183.433 275.68Z" fill="#A1FEB5" stroke="#A1FEB5" stroke-width="0.348289" stroke-miterlimit="10"/>
<path d="M106.398 183.4C106.398 171.029 116.427 161 128.798 161H173.598C185.97 161 195.998 171.029 195.998 183.4V260.4C195.998 272.771 185.97 282.8 173.598 282.8H128.798C116.427 282.8 106.398 272.771 106.398 260.4V183.4Z" fill="#081E3F"/>
<path d="M169.049 236.923V237.016V229.114C167.376 229.951 165.423 230.602 163.285 231.159C159.845 231.996 155.662 232.461 151.199 232.461C146.644 232.461 142.46 231.996 139.02 231.159C136.882 230.602 134.93 229.951 133.349 229.114V236.923C133.349 237.202 133.442 237.667 134.093 238.318C134.744 239.062 135.952 239.805 137.626 240.549C140.88 241.944 145.714 242.873 151.199 242.873C156.591 242.873 161.426 241.944 164.68 240.549C166.353 239.805 167.562 239.062 168.212 238.318C168.956 237.667 169.049 237.202 169.049 236.923ZM169.049 217.214C167.376 218.051 165.423 218.702 163.285 219.259C159.845 220.096 155.662 220.561 151.199 220.561C146.644 220.561 142.46 220.096 139.02 219.259C136.882 218.702 134.93 218.051 133.349 217.214V225.674C134.651 226.604 136.789 227.534 139.671 228.277C142.925 229.021 146.923 229.486 151.199 229.486C155.476 229.486 159.38 229.021 162.634 228.277C165.516 227.534 167.655 226.604 169.049 225.674V217.214ZM169.049 213.774V207.173C169.049 206.988 168.956 206.523 168.212 205.872C167.562 205.128 166.353 204.384 164.68 203.641C161.426 202.246 156.591 201.223 151.199 201.223C145.714 201.223 140.88 202.246 137.626 203.641C135.952 204.384 134.744 205.128 134.093 205.872C133.442 206.523 133.349 206.988 133.349 207.173V213.774C134.651 214.704 136.789 215.634 139.671 216.377C142.925 217.121 146.923 217.586 151.199 217.586C155.476 217.586 159.38 217.121 162.634 216.377C165.516 215.634 167.655 214.704 169.049 213.774ZM172.024 236.923C172.024 241.851 162.634 245.848 151.199 245.848C139.671 245.848 130.374 241.851 130.374 236.923V207.173C130.374 202.246 139.671 198.248 151.199 198.248C162.634 198.248 172.024 202.246 172.024 207.173V236.923Z" fill="#A1FEB5"/>
</g>
<defs>
<clipPath id="clip0_883_9159">
<rect width="210" height="297" fill="white"/>
</clipPath>
</defs>
</svg>
