<svg width="210" height="297" viewBox="0 0 210 297" fill="none" xmlns="http://www.w3.org/2000/svg">
<g clip-path="url(#clip0_883_9158)">
<path d="M0 0H210V296.8H0V0Z" fill="#78D1F5"/>
<path d="M0 0H210V296.8H0V0Z" fill="#6CBCDC"/>
<path d="M0 0H210V296.8H0V0Z" fill="url(#paint0_linear_883_9158)" fill-opacity="0.5"/>
<g clip-path="url(#clip1_883_9158)">
<path d="M95.7144 182.042L34.5244 175.774L0 172.749L0 297.976H210V179.893L192.637 184.272L150.936 170.797L95.7144 182.042Z" fill="#78D1F5"/>
<path d="M95.7144 182.042L34.5244 175.774L0 172.749L0 297.976H210V179.893L192.637 184.272L150.936 170.797L95.7144 182.042Z" fill="#081E3F" fill-opacity="0.2"/>
</g>
<g opacity="0.5">
<path d="M33.6486 176.038L6.20919 158.578L-12.0586 172.005L33.6527 176.038" stroke="#081E3F" stroke-width="0.460526"/>
<path d="M12.758 217.289L-12.3403 172.168L-26.9102 212.247L12.7622 217.289" stroke="#081E3F" stroke-width="0.460526"/>
<path d="M150.736 171.035L105.745 156.641L95.4219 182.057L150.74 171.035" stroke="#081E3F" stroke-width="0.460526"/>
<path d="M121.876 208.107L95.144 182.246L59.2617 203.42L121.88 208.107" stroke="#081E3F" stroke-width="0.460526"/>
<path d="M227.097 175.554L233.786 128.117L193.359 184.629L227.102 175.554" stroke="#081E3F" stroke-width="0.460526"/>
<path d="M219.309 217.555L193.088 184.801L167.094 205.154L219.313 217.555" stroke="#081E3F" stroke-width="0.460526"/>
<path d="M94.8743 182.057L45.3059 144.508L34.1953 176.051L94.8785 182.057" stroke="#081E3F" stroke-width="0.460526"/>
<path d="M58.7318 203.41L33.9225 176.234L13.2969 217.297L58.736 203.41" stroke="#081E3F" stroke-width="0.460526"/>
<path d="M192.829 184.606L195.086 144.52L151.297 171.025L192.833 184.606" stroke="#081E3F" stroke-width="0.460526"/>
<path d="M166.559 205.162L151.017 171.223L122.422 208.106L166.563 205.162" stroke="#081E3F" stroke-width="0.460526"/>
<path d="M33.8299 177.14C34.3896 177.14 34.8434 176.686 34.8434 176.127C34.8434 175.567 34.3896 175.113 33.8299 175.113C33.2702 175.113 32.8164 175.567 32.8164 176.127C32.8164 176.686 33.2702 177.14 33.8299 177.14Z" stroke="#081E3F" stroke-width="1.84211"/>
<path d="M12.9351 218.382C13.4921 218.382 13.9444 217.93 13.9444 217.369C13.9444 216.808 13.4921 216.355 12.9351 216.355C12.3781 216.355 11.9258 216.808 11.9258 217.369C11.9258 217.93 12.3781 218.382 12.9351 218.382Z" stroke="#081E3F" stroke-width="1.84211"/>
<path d="M6.11476 159.652C6.67176 159.652 7.12405 159.2 7.12405 158.638C7.12405 158.077 6.67176 157.625 6.11476 157.625C5.55777 157.625 5.10547 158.077 5.10547 158.638C5.10547 159.2 5.55777 159.652 6.11476 159.652Z" stroke="#081E3F" stroke-width="1.84211"/>
<path d="M150.924 170.332C151.358 170.332 151.707 170.681 151.707 171.115C151.707 171.548 151.354 171.898 150.924 171.898C150.49 171.898 150.141 171.549 150.141 171.115C150.141 170.681 150.49 170.332 150.924 170.332Z" fill="#081E3F" stroke="#081E3F" stroke-width="0.460526"/>
<path d="M150.924 172.129C151.481 172.129 151.937 171.676 151.937 171.115C151.937 170.554 151.485 170.102 150.924 170.102C150.362 170.102 149.91 170.554 149.91 171.115C149.91 171.676 150.362 172.129 150.924 172.129Z" stroke="#081E3F" stroke-width="1.84211"/>
<path d="M122.061 207.406C122.494 207.406 122.844 207.756 122.844 208.189C122.844 208.623 122.491 208.973 122.061 208.973C121.627 208.973 121.277 208.623 121.277 208.189C121.277 207.755 121.627 207.406 122.061 207.406Z" fill="#081E3F" stroke="#081E3F" stroke-width="0.460526"/>
<path d="M122.06 209.203C122.62 209.203 123.074 208.749 123.074 208.189C123.074 207.63 122.62 207.176 122.06 207.176C121.501 207.176 121.047 207.63 121.047 208.189C121.047 208.749 121.501 209.203 122.06 209.203Z" stroke="#081E3F" stroke-width="1.84211"/>
<path d="M105.662 157.711C106.219 157.711 106.671 157.258 106.671 156.697C106.671 156.136 106.219 155.684 105.662 155.684C105.105 155.684 104.652 156.136 104.652 156.697C104.652 157.258 105.105 157.711 105.662 157.711Z" stroke="#081E3F" stroke-width="1.84211"/>
<path d="M95.0601 183.148C95.6171 183.148 96.0694 182.696 96.0694 182.135C96.0694 181.573 95.6171 181.121 95.0601 181.121C94.5031 181.121 94.0508 181.573 94.0508 182.135C94.0508 182.696 94.5031 183.148 95.0601 183.148Z" stroke="#081E3F" stroke-width="1.84211"/>
<path d="M58.9116 204.499C59.4691 204.499 59.9209 204.047 59.9209 203.49C59.9209 202.932 59.4691 202.48 58.9116 202.48C58.3542 202.48 57.9023 202.932 57.9023 203.49C57.9023 204.047 58.3542 204.499 58.9116 204.499Z" stroke="#081E3F" stroke-width="1.84211"/>
<path d="M45.2205 145.582C45.7775 145.582 46.234 145.129 46.234 144.568C46.234 144.007 45.7817 143.555 45.2205 143.555C44.6593 143.555 44.207 144.007 44.207 144.568C44.207 145.129 44.6593 145.582 45.2205 145.582Z" stroke="#081E3F" stroke-width="1.84211"/>
<path d="M193.018 183.902C193.453 183.902 193.801 184.249 193.801 184.682C193.801 185.115 193.448 185.465 193.018 185.465C192.584 185.465 192.235 185.112 192.234 184.682C192.234 184.252 192.583 183.902 193.018 183.902Z" fill="#081E3F" stroke="#081E3F" stroke-width="0.460526"/>
<path d="M193.017 185.69C193.575 185.69 194.026 185.239 194.026 184.681C194.026 184.124 193.575 183.672 193.017 183.672C192.46 183.672 192.008 184.124 192.008 184.681C192.008 185.239 192.46 185.69 193.017 185.69Z" stroke="#081E3F" stroke-width="1.84211"/>
<path d="M166.736 204.461C167.171 204.461 167.52 204.808 167.52 205.24C167.519 205.673 167.167 206.023 166.736 206.023C166.303 206.023 165.953 205.67 165.953 205.24C165.953 204.811 166.302 204.461 166.736 204.461Z" fill="#081E3F" stroke="#081E3F" stroke-width="0.460526"/>
<path d="M166.736 206.253C167.293 206.253 167.75 205.801 167.75 205.24C167.75 204.679 167.297 204.23 166.736 204.23C166.175 204.23 165.723 204.683 165.723 205.24C165.723 205.797 166.175 206.253 166.736 206.253Z" stroke="#081E3F" stroke-width="1.84211"/>
<path d="M194.974 145.597C195.531 145.597 195.988 145.145 195.988 144.584C195.988 144.023 195.536 143.57 194.974 143.57C194.413 143.57 193.961 144.023 193.961 144.584C193.961 145.145 194.413 145.597 194.974 145.597Z" stroke="#081E3F" stroke-width="1.84211"/>
<path d="M45.5312 144.543L105.511 156.684" stroke="#081E3F" stroke-width="0.460526"/>
<path d="M195.293 144.577L233.525 128.223" stroke="#081E3F" stroke-width="0.460526"/>
<path d="M6.42578 158.627L45.0637 144.543" stroke="#081E3F" stroke-width="0.460526"/>
<path d="M105.98 156.682L194.823 144.562" stroke="#081E3F" stroke-width="0.460526"/>
</g>
<path d="M106.398 183.4C106.398 171.029 116.427 161 128.798 161H173.598C185.97 161 195.998 171.029 195.998 183.4V260.4C195.998 272.771 185.97 282.8 173.598 282.8H128.798C116.427 282.8 106.398 272.771 106.398 260.4V183.4Z" fill="#78D1F5"/>
<path d="M142.274 199.736V204.198H160.124V199.736C160.124 198.992 160.775 198.248 161.612 198.248C162.355 198.248 163.099 198.992 163.099 199.736V204.198H166.074C169.328 204.198 172.024 206.895 172.024 210.148V213.123V216.098V239.898C172.024 243.245 169.328 245.848 166.074 245.848H136.324C132.977 245.848 130.374 243.245 130.374 239.898V216.098V213.123V210.148C130.374 206.895 132.977 204.198 136.324 204.198H139.299V199.736C139.299 198.992 139.95 198.248 140.787 198.248C141.53 198.248 142.274 198.992 142.274 199.736ZM133.349 216.098V239.898C133.349 241.572 134.651 242.873 136.324 242.873H166.074C167.655 242.873 169.049 241.572 169.049 239.898V216.098H133.349ZM136.324 207.173C134.651 207.173 133.349 208.568 133.349 210.148V213.123H169.049V210.148C169.049 208.568 167.655 207.173 166.074 207.173H136.324ZM161.147 224.652L150.734 235.064C150.177 235.622 149.154 235.622 148.596 235.064L142.646 229.114C142.088 228.556 142.088 227.534 142.646 226.976C143.204 226.418 144.227 226.418 144.784 226.976L149.712 231.903L159.009 222.513C159.566 221.955 160.589 221.955 161.147 222.513C161.705 223.071 161.705 224.094 161.147 224.652Z" fill="#081E3F"/>
</g>
<defs>
<linearGradient id="paint0_linear_883_9158" x1="190.4" y1="0" x2="190.4" y2="200.2" gradientUnits="userSpaceOnUse">
<stop stop-color="#78D1F5" stop-opacity="0"/>
<stop offset="1" stop-color="#78D1F5"/>
</linearGradient>
<clipPath id="clip0_883_9158">
<rect width="210" height="297" fill="white"/>
</clipPath>
<clipPath id="clip1_883_9158">
<rect width="210" height="128.8" fill="white" transform="translate(0 170.797)"/>
</clipPath>
</defs>
</svg>
