<svg width="210" height="297" viewBox="0 0 210 297" fill="none" xmlns="http://www.w3.org/2000/svg">
<g clip-path="url(#clip0_883_9161)">
<path d="M0 0H210V296.8H0V0Z" fill="#4EB2B4"/>
<path d="M0 0H210V296.8H0V0Z" fill="black" fill-opacity="0.1"/>
<mask id="mask0_883_9161" style="mask-type:luminance" maskUnits="userSpaceOnUse" x="42" y="92" width="162" height="163">
<path d="M203.686 92.3984H42V254.084H203.686V92.3984Z" fill="white"/>
</mask>
<g mask="url(#mask0_883_9161)">
<path d="M122.85 254.084C78.19 254.084 42 217.894 42 173.248C42 128.602 78.19 92.3984 122.85 92.3984C167.51 92.3984 203.7 128.588 203.7 173.248C203.7 217.908 167.51 254.098 122.85 254.098" fill="#5ABFB5"/>
</g>
<mask id="mask1_883_9161" style="mask-type:luminance" maskUnits="userSpaceOnUse" x="-42" y="63" width="270" height="270">
<path d="M-41.7344 332.937H227.937V63.2656L-41.7344 332.937Z" fill="white"/>
</mask>
<g mask="url(#mask1_883_9161)">
<path d="M49.6874 -64.4195L-169.391 241.473L136.502 460.551L355.58 154.659L49.6874 -64.4195Z" fill="url(#paint0_linear_883_9161)"/>
</g>
<g clip-path="url(#clip1_883_9161)">
<path d="M187.75 103.25C150.498 65.9983 90.1015 65.9884 52.8497 103.24C15.5979 140.492 15.5979 200.899 52.8497 238.15" stroke="#5ABFB5" stroke-width="1.12"/>
</g>
<path d="M106.398 183.4C106.398 171.029 116.427 161 128.798 161H173.598C185.97 161 195.998 171.029 195.998 183.4V260.4C195.998 272.771 185.97 282.8 173.598 282.8H128.798C116.427 282.8 106.398 272.771 106.398 260.4V183.4Z" fill="#337B7E"/>
<path d="M171.931 217.586C171.187 208.94 164.308 202.06 155.662 201.316V217.586H171.931ZM154.174 220.561C153.337 220.561 152.687 219.91 152.687 219.073V199.736C152.687 198.992 153.245 198.248 153.988 198.248H154.174C165.609 198.248 174.999 207.638 174.999 219.073V219.259C174.906 220.003 174.255 220.561 173.512 220.561H154.174ZM146.086 227.162C145.528 226.604 145.249 225.86 145.249 225.023V204.756C136.696 206.802 130.374 214.425 130.374 223.536C130.374 234.227 139.02 242.873 149.712 242.873C153.152 242.873 156.405 241.944 159.287 240.363L146.086 227.162ZM146.644 201.502C147.48 201.316 148.224 202.06 148.224 202.897V225.023L162.727 239.62C163.378 240.27 163.285 241.293 162.634 241.758C158.916 244.361 154.453 245.848 149.712 245.848C137.347 245.848 127.399 235.901 127.399 223.536C127.399 212.287 135.766 202.99 146.644 201.502ZM169.886 236.645C172.117 234.227 173.698 231.252 174.441 227.998H161.333L169.886 236.645ZM177.695 226.604V226.697C177.045 231.81 174.534 236.459 170.816 239.898C170.258 240.363 169.421 240.363 168.863 239.805L156.684 227.627C155.755 226.697 156.405 225.023 157.707 225.023H176.301C177.137 225.023 177.881 225.767 177.695 226.604Z" fill="white"/>
</g>
<defs>
<linearGradient id="paint0_linear_883_9161" x1="19.4773" y1="304.324" x2="181.361" y2="78.2909" gradientUnits="userSpaceOnUse">
<stop stop-color="#328C8E"/>
<stop offset="1" stop-color="#47B0B3"/>
</linearGradient>
<clipPath id="clip0_883_9161">
<rect width="210" height="297" fill="white"/>
</clipPath>
<clipPath id="clip1_883_9161">
<rect width="191.898" height="95.956" fill="white" transform="translate(-15.3984 170.695) rotate(-45)"/>
</clipPath>
</defs>
</svg>
